<svg width="175" height="60" viewBox="0 0 175 60" fill="none" xmlns="http://www.w3.org/2000/svg">
<rect width="175" height="60" rx="12" fill="black"/>
<path d="M60.6683 16.7942L60.0097 14.731C59.8483 14.2212 59.7115 13.6533 59.5874 13.1681H59.5627C59.4418 13.6525 59.3146 14.2339 59.1682 14.731L58.5224 16.7942H60.6683ZM58.2735 17.9466L57.5529 20.32H55.9741L58.6584 11.9505H60.6062L63.3248 20.32H61.6871L60.9292 17.9466" fill="white"/>
<path d="M65.6082 14.2745L66.5897 17.3382C66.7639 17.8727 66.8848 18.357 66.9969 18.8541H67.0343C67.1465 18.357 67.2825 17.8846 67.4447 17.3382L68.4142 14.2745H70.0145L67.7056 20.3208H66.2048L63.9555 14.2745" fill="white"/>
<path d="M74.6211 17.3628C73.5402 17.3501 72.5087 17.5744 72.5087 18.4938C72.5087 19.0903 72.8936 19.3639 73.3788 19.3639C73.9968 19.3639 74.435 18.9663 74.5814 18.5312C74.6219 18.4191 74.6219 18.3077 74.6219 18.1956L74.6211 17.3628ZM76.1092 18.8669C76.1092 19.4141 76.1339 19.9477 76.2087 20.3176H74.8295L74.7206 19.6495H74.6808C74.3237 20.1187 73.6898 20.4544 72.8944 20.4544C71.6767 20.4544 70.9959 19.5755 70.9959 18.6553C70.9959 17.1393 72.3472 16.3591 74.5814 16.3718V16.2724C74.5814 15.8747 74.4231 15.2162 73.3541 15.2162C72.7576 15.2162 72.1365 15.4023 71.726 15.6632L71.4278 14.669C71.8748 14.3954 72.6582 14.1377 73.615 14.1377C75.5509 14.1377 76.11 15.3649 76.11 16.6947" fill="white"/>
<path d="M78.2687 14.2745H79.7942V20.3208H78.2687V14.2745ZM79.0235 13.4044C78.5168 13.4044 78.1812 13.0313 78.1812 12.5844C78.1812 12.1119 78.5264 11.7516 79.0386 11.7516C79.5572 11.7516 79.8809 12.1119 79.8928 12.5844C79.8928 13.0313 79.5572 13.4044 79.0386 13.4044" fill="white"/>
<path d="M81.9909 20.3208H83.5195V11.4907H81.9909V20.3208Z" fill="white"/>
<path d="M88.932 17.3628C87.8511 17.3501 86.8195 17.5744 86.8195 18.4938C86.8195 19.0903 87.2045 19.3639 87.6897 19.3639C88.3108 19.3639 88.7459 18.9663 88.8954 18.5312C88.9328 18.4191 88.9328 18.3077 88.9328 18.1956L88.932 17.3628ZM90.4201 18.8669C90.4201 19.4141 90.4448 19.9477 90.5195 20.3176H89.1436L89.0314 19.6495H88.994C88.6337 20.1187 87.9998 20.4544 87.2045 20.4544C85.99 20.4544 85.306 19.5755 85.306 18.6553C85.306 17.1393 86.6605 16.3591 88.8946 16.3718V16.2724C88.8946 15.8747 88.7332 15.2162 87.6642 15.2162C87.0677 15.2162 86.4465 15.4023 86.0393 15.6632L85.741 14.669C86.188 14.3954 86.9683 14.1377 87.9251 14.1377C89.861 14.1377 90.4201 15.3649 90.4201 16.6947" fill="white"/>
<path d="M94.1073 17.8226C94.1073 17.9466 94.12 18.0707 94.1447 18.1828C94.3061 18.804 94.8406 19.2518 95.496 19.2518C96.4528 19.2518 97.0374 18.4938 97.0374 17.2666C97.0374 16.1976 96.5276 15.3275 95.5087 15.3275C94.8875 15.3275 94.3189 15.7745 94.1574 16.4458C94.1327 16.5579 94.1081 16.6939 94.1081 16.8435L94.1073 17.8226ZM92.5786 11.4907H94.1073V15.104H94.1319C94.505 14.5202 95.1603 14.1377 96.0678 14.1377C97.5464 14.1377 98.6003 15.3649 98.5875 17.2038C98.5875 19.3751 97.2116 20.4568 95.8443 20.4568C95.0617 20.4568 94.369 20.1585 93.9339 19.4133H93.9092L93.8345 20.3208H92.5293C92.554 19.9104 92.5786 19.2399 92.5786 18.6306" fill="white"/>
<path d="M100.387 20.3208H101.912V11.4907H100.387V20.3208Z" fill="white"/>
<path d="M107.858 16.6574C107.871 16.0982 107.622 15.1788 106.606 15.1788C105.661 15.1788 105.264 16.0362 105.202 16.6574H107.858ZM105.203 17.7231C105.24 18.8167 106.097 19.2892 107.067 19.2892C107.772 19.2892 108.269 19.177 108.741 19.0156L108.965 20.0567C108.443 20.2834 107.722 20.4417 106.855 20.4417C104.892 20.4417 103.736 19.2391 103.736 17.3907C103.736 15.7133 104.755 14.1377 106.694 14.1377C108.654 14.1377 109.3 15.7499 109.3 17.0797C109.3 17.3652 109.276 17.5895 109.251 17.7231" fill="white"/>
<path d="M116.884 19.3512C117.751 19.3512 118.359 18.5065 118.359 17.2793C118.359 16.3344 117.937 15.2416 116.896 15.2416C115.815 15.2416 115.38 16.2978 115.38 17.3048C115.38 18.47 115.964 19.352 116.868 19.352L116.884 19.3512ZM116.835 20.4575C115.132 20.4575 113.805 19.2892 113.805 17.3413C113.805 15.353 115.107 14.1385 116.934 14.1385C118.733 14.1385 119.938 15.4031 119.938 17.2419C119.938 19.4633 118.372 20.4575 116.846 20.4575" fill="white"/>
<path d="M121.734 16.0736C121.734 15.3776 121.712 14.7938 121.687 14.2713H123.014L123.088 15.1788H123.126C123.399 14.7064 124.058 14.1377 125.065 14.1377C126.118 14.1377 127.212 14.8177 127.212 16.7321V20.3176H125.683V16.9063C125.683 16.0362 125.36 15.3776 124.53 15.3776C123.921 15.3776 123.499 15.8127 123.337 16.2724C123.288 16.3965 123.263 16.5834 123.263 16.7568V20.3176H121.734" fill="white"/>
<path d="M134.248 12.7211V14.2713H135.699V15.415H134.248V18.0715C134.248 18.8175 134.447 19.1898 135.028 19.1898C135.301 19.1898 135.45 19.177 135.624 19.1277L135.649 20.2802C135.425 20.3701 135.015 20.4416 134.542 20.4416C133.974 20.4416 133.514 20.2555 133.228 19.9477C132.893 19.5994 132.744 19.0402 132.744 18.2449V15.4142H131.887V14.2705H132.744V13.1427" fill="white"/>
<path d="M137.398 11.4907H138.927V15.0913H138.952C139.138 14.8058 139.399 14.5696 139.71 14.4081C140.021 14.2371 140.378 14.1377 140.763 14.1377C141.794 14.1377 142.872 14.8177 142.872 16.7568V20.32H141.347V16.9182C141.347 16.0481 141.024 15.3768 140.178 15.3768C139.585 15.3768 139.163 15.7745 138.988 16.2342C138.939 16.371 138.926 16.5325 138.926 16.6939V20.32H137.398" fill="white"/>
<path d="M148.782 16.6574C148.795 16.0982 148.546 15.1788 147.527 15.1788C146.582 15.1788 146.188 16.0362 146.126 16.6574H148.782ZM146.126 17.7231C146.163 18.8167 147.017 19.2892 147.987 19.2892C148.696 19.2892 149.193 19.177 149.661 19.0156L149.888 20.0567C149.366 20.2834 148.646 20.4417 147.775 20.4417C145.815 20.4417 144.659 19.2391 144.659 17.3907C144.659 15.7133 145.678 14.1377 147.614 14.1377C149.575 14.1377 150.22 15.7499 150.22 17.0797C150.22 17.3652 150.196 17.5895 150.171 17.7231" fill="white"/>
<path d="M39.278 28.4358C39.2374 24.2944 42.6678 22.2781 42.8261 22.1851C40.8846 19.352 37.8734 18.9663 36.814 18.9353C34.2879 18.6712 31.8367 20.4512 30.5506 20.4512C29.2367 20.4512 27.2514 18.9631 25.1167 19.0068C22.364 19.0506 19.7918 20.6445 18.3809 23.114C15.4731 28.1566 17.6412 35.5629 20.4313 39.6391C21.8295 41.6339 23.4576 43.864 25.5915 43.7837C27.6793 43.697 28.4588 42.4539 30.9785 42.4539C33.4767 42.4539 34.2092 43.7837 36.3877 43.7336C38.6274 43.6962 40.0384 41.7293 41.3833 39.7131C42.9987 37.4264 43.6453 35.174 43.6699 35.0587C43.6182 35.0412 39.3209 33.4004 39.278 28.4358Z" fill="white"/>
<path d="M35.1644 16.2565C36.2859 14.8519 37.0597 12.9383 36.8418 11C35.2169 11.0748 33.1848 12.1246 32.014 13.4982C30.9793 14.7095 30.0503 16.6955 30.2929 18.559C32.1198 18.6958 33.9929 17.6396 35.1644 16.2565Z" fill="white"/>
<path d="M64.4748 36.3424L63.0336 31.89C62.8817 31.4366 62.5954 30.3645 62.173 28.6807H62.1221C61.9543 29.4045 61.6807 30.4766 61.3109 31.89L59.8944 36.3424H64.4748ZM69.4577 43.4544H66.5467L64.9528 38.4461H59.4164L57.8972 43.4544H55.0642L60.5569 26.4044H63.9435" fill="white"/>
<path d="M80.7916 37.2562C80.7916 36.0568 80.5211 35.0722 79.9803 34.2951C79.3901 33.487 78.598 33.0806 77.6038 33.0806C76.9293 33.0806 76.3145 33.3073 75.7705 33.7519C75.2233 34.202 74.863 34.7866 74.6928 35.5136C74.6093 35.8492 74.5687 36.126 74.5687 36.3431V38.3936C74.5687 39.2883 74.8423 40.0431 75.3887 40.6587C75.9383 41.2767 76.6501 41.5813 77.5266 41.5813C78.5582 41.5813 79.3599 41.1868 79.9286 40.3915C80.506 39.5985 80.7916 38.555 80.7916 37.2562ZM83.5753 37.1536C83.5753 39.2446 83.0098 40.9005 81.8788 42.1118C80.8663 43.1927 79.6081 43.7304 78.1104 43.7304C76.4887 43.7304 75.3267 43.1466 74.618 41.9846H74.5687V48.4627H71.8343V35.2058C71.8343 33.8919 71.8033 32.5429 71.7349 31.1574H74.1368L74.2887 33.1084H74.3412C75.2519 31.6386 76.6342 30.9053 78.489 30.9053C79.9365 30.9053 81.1518 31.4803 82.1174 32.6264C83.0877 33.7765 83.5753 35.2829 83.5753 37.1536Z" fill="white"/>
<path d="M94.9306 37.2562C94.9306 36.0568 94.6601 35.0722 94.1193 34.2951C93.5292 33.487 92.737 33.0806 91.7428 33.0806C91.0683 33.0806 90.4567 33.3073 89.9095 33.7519C89.3599 34.202 89.0052 34.7866 88.8374 35.5136C88.7507 35.8492 88.7101 36.126 88.7101 36.3431V38.3936C88.7101 39.2883 88.9805 40.0431 89.5269 40.6587C90.0765 41.2767 90.7884 41.5813 91.6672 41.5813C92.6956 41.5813 93.4973 41.1868 94.0692 40.3915C94.6419 39.5985 94.9306 38.555 94.9306 37.2562ZM97.7119 37.1536C97.7119 39.2446 97.1496 40.9005 96.0186 42.1118C95.0061 43.1927 93.7503 43.7304 92.2502 43.7304C90.6317 43.7304 89.4697 43.1466 88.7578 41.9846H88.7109V48.4627H85.9765V35.2058C85.9765 33.8919 85.9423 32.5429 85.8771 31.1574H88.279L88.4309 33.1084H88.4834C89.3909 31.6386 90.7733 30.9053 92.628 30.9053C94.0788 30.9053 95.2877 31.4803 96.2596 32.6264C97.2299 33.7765 97.7119 35.2829 97.7119 37.1536Z" fill="white"/>
<path d="M113.525 38.6727C113.525 40.1203 113.022 41.3014 112.009 42.2144C110.897 43.2086 109.353 43.7057 107.367 43.7057C105.531 43.7057 104.059 43.3518 102.944 42.6431L103.578 40.3692C104.78 41.093 106.094 41.4533 107.53 41.4533C108.558 41.4533 109.36 41.2234 109.934 40.7605C110.506 40.2945 110.791 39.6733 110.791 38.8962C110.791 38.2067 110.558 37.6197 110.086 37.1472C109.614 36.6748 108.828 36.2366 107.731 35.8301C104.745 34.715 103.254 33.0838 103.254 30.9403C103.254 29.5389 103.776 28.3896 104.823 27.4948C105.867 26.6 107.258 26.1499 108.996 26.1499C110.549 26.1499 111.838 26.4235 112.867 26.9611L112.183 29.1889C111.223 28.6672 110.136 28.4031 108.921 28.4031C107.958 28.4031 107.209 28.6393 106.672 29.1118C106.218 29.5341 105.988 30.0503 105.988 30.6556C105.988 31.33 106.246 31.886 106.771 32.3242C107.224 32.7283 108.051 33.1665 109.25 33.6413C110.717 34.2315 111.794 34.921 112.487 35.7132C113.177 36.5038 113.525 37.4924 113.525 38.6727Z" fill="white"/>
<path d="M122.554 33.2079H119.544V39.1762C119.544 40.6953 120.075 41.4533 121.141 41.4533C121.625 41.4533 122.032 41.4127 122.352 41.3292L122.427 43.4011C121.892 43.6063 121.181 43.7057 120.305 43.7057C119.227 43.7057 118.382 43.3765 117.772 42.7211C117.166 42.0625 116.862 40.9562 116.862 39.406V33.2079H115.066V31.1574H116.862V28.9082L119.543 28.0969V31.1574H122.553" fill="white"/>
<path d="M133.306 37.2936C133.306 36.1594 133.061 35.1899 132.57 34.3763C132.001 33.3948 131.181 32.9033 130.119 32.9033C129.022 32.9033 128.186 33.394 127.615 34.3763C127.124 35.1899 126.885 36.1785 126.885 37.3461C126.885 38.4803 127.124 39.4498 127.615 40.2603C128.205 41.2418 129.031 41.7333 130.097 41.7333C131.138 41.7333 131.958 41.2362 132.548 40.2356C133.055 39.4093 133.306 38.427 133.306 37.2936ZM136.14 37.2061C136.14 39.0951 135.603 40.6452 134.522 41.8605C133.391 43.1092 131.89 43.7312 130.02 43.7312C128.212 43.7312 126.777 43.1315 125.704 41.9353C124.635 40.7391 124.101 39.2295 124.101 37.4089C124.101 35.5017 124.651 33.942 125.757 32.7299C126.86 31.5122 128.348 30.9061 130.218 30.9061C132.023 30.9061 133.477 31.5058 134.571 32.702C135.618 33.8696 136.14 35.3673 136.14 37.2061Z" fill="white"/>
<path d="M145.02 33.5618C144.749 33.5125 144.464 33.487 144.159 33.487C143.199 33.487 142.453 33.8505 141.931 34.5743C141.478 35.2177 141.251 36.025 141.251 37.0009V43.4536H138.52L138.541 35.0308C138.541 33.6111 138.507 32.3218 138.442 31.1566H140.822L140.921 33.5117H140.993C141.281 32.7036 141.739 32.0514 142.36 31.5639C142.969 31.1256 143.628 30.9053 144.336 30.9053C144.587 30.9053 144.817 30.9236 145.019 30.9546" fill="white"/>
<path d="M154.629 36.0163C154.647 35.2082 154.471 34.5067 154.101 33.9157C153.628 33.1578 152.898 32.7752 151.923 32.7752C151.032 32.7752 150.305 33.1482 149.749 33.8903C149.295 34.4804 149.022 35.1891 148.944 36.0155L154.629 36.0163ZM157.232 36.7249C157.232 37.2157 157.201 37.6261 157.136 37.9649H148.943C148.971 39.1794 149.369 40.1084 150.13 40.7486C150.819 41.3237 151.714 41.606 152.811 41.606C154.022 41.606 155.129 41.4135 156.126 41.0254L156.555 42.9239C155.389 43.4274 154.017 43.6851 152.428 43.6851C150.523 43.6851 149.027 43.1227 147.939 41.9981C146.854 40.8798 146.307 39.3727 146.307 37.4837C146.307 35.6289 146.811 34.0851 147.826 32.8547C148.886 31.5376 150.321 30.8822 152.123 30.8822C153.894 30.8822 155.239 31.5376 156.149 32.8547C156.875 33.8974 157.232 35.1899 157.232 36.7249Z" fill="white"/>
</svg>
