<svg width="175" height="60" viewBox="0 0 175 60" fill="none" xmlns="http://www.w3.org/2000/svg">
<rect width="175" height="60" rx="12" fill="black"/>
<path d="M137.041 42.4902H139.427V26.4996H137.041V42.4902ZM158.54 32.2595L155.803 39.1942H155.722L152.883 32.2595H150.311L154.57 41.9501L152.14 47.3402H154.632L161.194 32.2595H158.54ZM145 40.6728C144.221 40.6728 143.129 40.2846 143.129 39.3151C143.129 38.0815 144.487 37.6091 145.659 37.6091C146.709 37.6091 147.202 37.8357 147.84 38.1435C147.653 39.6253 146.38 40.6728 145 40.6728ZM145.29 31.9111C143.562 31.9111 141.773 32.6723 141.03 34.3592L143.149 35.2413C143.603 34.3592 144.445 34.0697 145.33 34.0697C146.567 34.0697 147.819 34.8094 147.84 36.1265V36.2912C147.408 36.0454 146.483 35.6732 145.352 35.6732C143.068 35.6732 140.744 36.9282 140.744 39.2737C140.744 41.414 142.615 42.794 144.715 42.794C146.318 42.794 147.203 42.0734 147.759 41.2279H147.84V42.4647H150.145V36.3317C150.145 33.4955 148.026 31.9111 145.29 31.9111ZM130.538 34.2073H127.142V28.7234H130.538C132.325 28.7234 133.335 30.2019 133.335 31.4634C133.334 32.7065 132.325 34.2073 130.538 34.2073ZM130.476 26.4996H124.757V42.4902H127.143V36.4319H130.476C133.123 36.4319 135.724 34.5151 135.724 31.4642C135.724 28.4132 133.123 26.4996 130.476 26.4996ZM99.2895 40.6759C97.64 40.6759 96.2576 39.2968 96.2576 37.4015C96.2576 35.4847 97.64 34.0833 99.2895 34.0833C100.918 34.0833 102.194 35.4847 102.194 37.4015C102.194 39.296 100.918 40.6759 99.2895 40.6759ZM102.026 33.1543H101.945C101.411 32.5172 100.379 31.9398 99.0803 31.9398C96.3586 31.9398 93.8668 34.3322 93.8668 37.4015C93.8668 40.4524 96.3586 42.8226 99.0803 42.8226C100.379 42.8226 101.411 42.2444 101.945 41.5858H102.026V42.3653C102.026 44.4467 100.917 45.5626 99.1217 45.5626C97.6582 45.5626 96.7515 44.5096 96.3817 43.6235L94.3003 44.4905C94.8968 45.9316 96.4843 47.7029 99.1217 47.7029C101.924 47.7029 104.295 46.0565 104.295 42.036V32.2683H102.026V33.1543ZM105.944 42.4902H108.337V26.4996H105.944V42.4902ZM111.859 37.2146C111.797 35.1109 113.487 34.0427 114.702 34.0427C115.649 34.0427 116.454 34.5151 116.721 35.1952L111.859 37.2146ZM119.279 35.4004C118.826 34.1859 117.446 31.939 114.619 31.939C111.82 31.939 109.49 34.1445 109.49 37.3792C109.49 40.4302 111.798 42.8226 114.89 42.8226C117.385 42.8226 118.826 41.2971 119.422 40.4087L117.568 39.1719C116.95 40.0794 116.104 40.6759 114.89 40.6759C113.675 40.6759 112.808 40.1232 112.252 39.0296L119.526 36.0223L119.279 35.4004ZM61.3177 33.6076V35.9158H66.8415C66.6768 37.2146 66.2449 38.1618 65.5832 38.8204C64.7815 39.6253 63.5232 40.5105 61.3177 40.5105C57.9192 40.5105 55.2595 37.7705 55.2595 34.3712C55.2595 30.9694 57.9192 28.2287 61.3177 28.2287C63.1542 28.2287 64.4928 28.9492 65.4806 29.8782L67.1087 28.247C65.7296 26.9298 63.8963 25.9197 61.3177 25.9197C56.6609 25.9197 52.7462 29.7136 52.7462 34.3704C52.7462 39.0272 56.6601 42.8226 61.3177 42.8226C63.8342 42.8226 65.7296 41.9962 67.2145 40.4524C68.7368 38.927 69.2124 36.7835 69.2124 35.0528C69.2124 34.5151 69.1718 34.0212 69.0883 33.6084L61.3177 33.6076ZM75.4909 40.6759C73.8414 40.6759 72.4217 39.3183 72.4217 37.3792C72.4217 35.4218 73.8414 34.0825 75.4909 34.0825C77.1405 34.0825 78.5602 35.4218 78.5602 37.3792C78.5602 39.3183 77.1405 40.6759 75.4909 40.6759ZM75.4909 31.939C72.4805 31.939 70.0292 34.2256 70.0292 37.3792C70.0292 40.5113 72.4805 42.8226 75.4909 42.8226C78.5014 42.8226 80.9526 40.5113 80.9526 37.3792C80.9526 34.2256 78.5014 31.939 75.4909 31.939ZM87.4053 40.6759C85.7558 40.6759 84.3329 39.3183 84.3329 37.3792C84.3329 35.4218 85.7558 34.0825 87.4053 34.0825C89.0517 34.0825 90.4746 35.4218 90.4746 37.3792C90.4754 39.3183 89.0525 40.6759 87.4053 40.6759ZM87.4053 31.939C84.3949 31.939 81.9436 34.2256 81.9436 37.3792C81.9436 40.5113 84.3949 42.8226 87.4053 42.8226C90.4126 42.8226 92.867 40.5113 92.867 37.3792C92.8678 34.2256 90.4134 31.939 87.4053 31.939Z" fill="white"/>
<path d="M58.8912 14.6742C58.41 14.2487 57.7793 13.9751 57.077 13.9751C55.5046 13.9751 54.2932 15.2739 54.2932 16.8678C54.2932 18.4649 55.5046 19.751 57.077 19.751C58.4315 19.751 59.4161 18.9652 59.4813 17.7188H57.341V16.8368H60.6378C60.6378 19.4805 59.23 20.7237 57.077 20.7237C54.9367 20.7237 53.2776 18.9994 53.2776 16.8678C53.2776 14.7275 54.9367 13 57.077 13C58.0712 13 58.9659 13.385 59.6213 13.9942" fill="white"/>
<path d="M66.4844 13.0899V14.0372H63.0421V16.4415H66.0462V17.392H63.0421V19.6627H66.5934V20.6131H62.0265V13.0883" fill="white"/>
<path d="M73.0707 13.0899V14.0499H70.7873V20.6148H69.7621V14.0499H67.4786V13.0899" fill="white"/>
<path d="M76.9265 20.6148H77.9422V13.0899H76.9265V20.6148Z" fill="white"/>
<path d="M84.8705 13.0899V14.0499H82.5871V20.6148H81.5587V14.0499H79.2752V13.0899" fill="white"/>
<path d="M92.0351 19.7414C93.6194 19.7414 94.8315 18.4649 94.8315 16.8678C94.8315 15.2739 93.6202 13.9846 92.0351 13.9846C90.4626 13.9846 89.2513 15.2739 89.2513 16.8678C89.2513 18.4649 90.4626 19.7414 92.0351 19.7414ZM92.0351 13C94.1881 13 95.8599 14.7275 95.8599 16.8678C95.8599 18.9994 94.1881 20.7237 92.0351 20.7237C89.8948 20.7237 88.2357 18.9994 88.2357 16.8678C88.2349 14.7275 89.894 13 92.0351 13Z" fill="white"/>
<path d="M101.868 20.6148L98.4385 14.9479V20.6148H97.4228V13.0899H98.4297L101.826 18.7131V13.0899H102.842V20.6148" fill="white"/>
<path d="M29.5752 27.4866C31.2215 25.8171 32.8377 24.1771 34.4586 22.5339C34.4006 22.4997 34.3131 22.4448 34.2232 22.3939C29.6706 19.8488 25.1188 17.3021 20.5638 14.7617C20.0436 14.4722 19.5354 14.1548 19.0033 13.8892C18.0974 13.3452 17.2336 13.2823 16.5775 13.3635C16.5743 13.3635 16.5719 13.3635 16.5687 13.3635C16.5663 13.3643 16.5632 13.3651 16.5608 13.3659C15.8561 13.4565 15.3964 13.7134 15.3964 13.7134C15.2771 13.7683 15.1602 13.8335 15.0472 13.9154C19.9164 18.4633 24.7664 22.9944 29.5752 27.4866Z" fill="white"/>
<path d="M13.5695 15.297C13.1559 15.9834 12.9992 16.6817 13 17.4245C13.0016 19.8019 13.0008 22.1792 13.0008 24.5565C13.0008 30.283 13.0016 36.0096 13 41.7361C13 42.4679 13.1376 43.1598 13.5122 43.7985C18.4092 38.841 23.2855 33.9059 28.1849 28.9468C23.3261 24.4093 18.4553 19.8607 13.5695 15.297Z" fill="white"/>
<path d="M15.0528 45.2985C15.0481 45.2953 15.0815 45.3184 15.1172 45.3375C16.4837 46.0422 17.8238 45.9555 19.1505 45.2134C23.1265 42.988 27.1048 40.7666 31.0832 38.5436C32.6063 37.6925 34.1302 36.8423 35.6978 35.9666C33.6744 34.0761 31.6845 32.2173 29.7533 30.4135C24.8381 35.3892 19.945 40.3442 15.0528 45.2985Z" fill="white"/>
<path d="M40.9408 26.1512C39.5044 25.3367 38.0561 24.543 36.6197 23.7269C36.416 23.6116 36.3039 23.6371 36.1448 23.7985C34.5422 25.433 32.9308 27.0587 31.3226 28.6868C31.2574 28.7528 31.1961 28.8236 31.1094 28.9174C33.2267 30.8955 35.3185 32.852 37.419 34.7999C37.4802 34.8563 37.6504 34.8603 37.7316 34.8158C38.8228 34.2193 39.9108 33.6172 40.9917 33.0016C41.9708 32.444 42.6675 31.6423 42.9276 30.5161C43.346 28.7059 42.6111 27.0985 40.9408 26.1512Z" fill="white"/>
</svg>
