<svg width="69" height="70" viewBox="0 0 69 70" fill="none" xmlns="http://www.w3.org/2000/svg">
<path d="M11.894 13.776C12.049 13.843 12.148 13.94 12.203 14.109C12.33 14.501 12.478 14.886 12.621 15.272C12.674 15.414 12.675 15.612 12.887 15.618C13.122 15.624 13.121 15.405 13.177 15.258C13.313 14.903 13.444 14.545 13.558 14.183C13.623 13.976 13.727 13.84 13.939 13.759C14.254 13.639 14.556 13.485 14.864 13.345C15.015 13.276 15.207 13.24 15.212 13.025C15.217 12.79 15.01 12.754 14.851 12.681C14.554 12.544 14.257 12.404 13.954 12.281C13.754 12.2 13.629 12.081 13.563 11.865C13.439 11.461 13.284 11.068 13.142 10.67C13.099 10.549 13.057 10.427 12.904 10.402C12.745 10.408 12.696 10.531 12.653 10.651C12.514 11.039 12.368 11.425 12.248 11.818C12.173 12.063 12.032 12.209 11.797 12.302C11.473 12.43 11.161 12.586 10.842 12.727C10.713 12.784 10.588 12.835 10.581 13.008C10.573 13.202 10.717 13.252 10.853 13.313C11.199 13.468 11.545 13.626 11.894 13.776Z" fill="#EE3E3C"/>
<path d="M13.954 56.299C13.754 56.218 13.629 56.099 13.563 55.883C13.439 55.479 13.284 55.086 13.142 54.688C13.099 54.567 13.057 54.445 12.904 54.42C12.745 54.426 12.696 54.549 12.653 54.669C12.514 55.057 12.368 55.443 12.248 55.836C12.173 56.081 12.032 56.227 11.797 56.32C11.473 56.448 11.161 56.605 10.842 56.745C10.713 56.802 10.588 56.853 10.581 57.026C10.573 57.22 10.717 57.27 10.853 57.331C11.2 57.487 11.546 57.644 11.895 57.795C12.05 57.862 12.149 57.959 12.204 58.128C12.331 58.52 12.479 58.905 12.622 59.291C12.675 59.433 12.676 59.631 12.888 59.637C13.123 59.643 13.122 59.424 13.178 59.277C13.314 58.922 13.445 58.564 13.559 58.202C13.624 57.995 13.728 57.859 13.94 57.779C14.255 57.659 14.557 57.505 14.865 57.365C15.016 57.296 15.208 57.26 15.213 57.045C15.218 56.81 15.011 56.774 14.852 56.701C14.554 56.562 14.257 56.422 13.954 56.299Z" fill="#EE3E3C"/>
<path d="M16.833 43.392C16.731 43.351 16.668 43.29 16.634 43.181C16.571 42.976 16.492 42.776 16.42 42.574C16.398 42.512 16.377 42.45 16.299 42.438C16.218 42.441 16.193 42.503 16.171 42.564C16.1 42.761 16.026 42.957 15.965 43.157C15.927 43.281 15.855 43.356 15.736 43.403C15.571 43.468 15.413 43.548 15.251 43.619C15.185 43.648 15.122 43.674 15.119 43.762C15.115 43.86 15.188 43.886 15.257 43.917C15.433 43.996 15.609 44.076 15.786 44.153C15.865 44.187 15.915 44.236 15.943 44.322C16.008 44.521 16.082 44.717 16.155 44.913C16.182 44.985 16.183 45.086 16.29 45.089C16.409 45.092 16.409 44.981 16.437 44.906C16.506 44.726 16.573 44.544 16.631 44.36C16.664 44.255 16.717 44.186 16.824 44.145C16.984 44.084 17.138 44.006 17.294 43.935C17.371 43.9 17.468 43.881 17.471 43.772C17.474 43.653 17.368 43.634 17.288 43.597C17.137 43.526 16.987 43.454 16.833 43.392Z" fill="#2E2E3E"/>
<path d="M39.251 13.776C39.406 13.843 39.505 13.94 39.56 14.109C39.687 14.501 39.835 14.886 39.978 15.272C40.031 15.414 40.032 15.612 40.244 15.618C40.479 15.624 40.478 15.405 40.534 15.258C40.67 14.903 40.801 14.545 40.915 14.183C40.98 13.976 41.084 13.84 41.296 13.759C41.611 13.639 41.913 13.485 42.221 13.345C42.372 13.276 42.564 13.24 42.569 13.025C42.574 12.79 42.367 12.754 42.208 12.681C41.911 12.544 41.614 12.404 41.311 12.281C41.111 12.2 40.986 12.081 40.92 11.865C40.796 11.461 40.641 11.068 40.499 10.67C40.456 10.549 40.414 10.427 40.261 10.402C40.102 10.408 40.053 10.531 40.01 10.651C39.871 11.039 39.725 11.425 39.605 11.818C39.53 12.063 39.389 12.209 39.154 12.302C38.83 12.43 38.518 12.586 38.199 12.727C38.07 12.784 37.945 12.835 37.938 13.008C37.93 13.202 38.074 13.252 38.21 13.313C38.555 13.468 38.901 13.626 39.251 13.776Z" fill="#EE3E3C"/>
<path d="M42.293 32.863C42.803 31.919 42.553 31.064 41.978 30.221C39.472 26.553 36.987 22.87 34.489 19.196C33.322 17.479 31.559 17.48 30.394 19.189C29.688 20.224 28.983 21.26 28.226 22.369C26.705 20.124 25.258 17.961 23.781 15.818C22.755 14.329 20.948 14.337 19.91 15.812C19.432 16.491 18.977 17.186 18.511 17.873C15.714 21.995 12.92 26.119 10.118 30.238C9.70101 30.851 9.40001 31.481 9.57801 32.248C9.85301 33.432 10.731 34.064 12.135 34.064C21.394 34.066 30.653 34.062 39.911 34.07C40.925 34.071 41.783 33.806 42.293 32.863ZM11.404 31.957C14.914 26.782 18.331 21.746 21.842 16.57C25.372 21.771 28.816 26.845 32.285 31.957C25.323 31.957 18.449 31.957 11.404 31.957ZM35.284 32.042C35.017 32.042 34.785 32.059 34.592 31.771C32.894 29.236 31.175 26.715 29.454 24.177C30.42 22.754 31.376 21.347 32.437 19.785C35.202 23.858 37.897 27.827 40.57 31.765C40.375 32.138 40.099 32.037 39.871 32.038C38.341 32.044 36.812 32.04 35.284 32.042Z" fill="#EE3E3C"/>
<path d="M51.693 60.215C51.484 60.01 51.21 59.931 50.86 59.913C50.415 59.921 49.667 60.128 49.662 61.436C49.661 62.331 49.661 63.226 49.661 64.122L49.66 66.36C49.66 67.328 49.641 67.346 48.658 67.346H3.469C2.456 67.346 2.427 67.318 2.427 66.325C2.426 45.562 2.426 24.803 2.427 4.03999V3.73399C2.427 2.75799 2.464 2.72099 3.409 2.72099H48.665C49.642 2.72099 49.66 2.73999 49.66 3.71399V5.21799C49.662 14.856 49.662 24.493 49.662 34.132C49.662 34.84 49.804 35.323 50.094 35.609C50.297 35.808 50.576 35.899 50.904 35.901C52.088 35.88 52.088 34.589 52.088 34.165L52.085 26.751C52.081 19.759 52.077 12.532 52.106 5.41799L52.112 3.08199C52.112 2.20699 51.68 1.38999 50.96 0.894993L50.906 0.856993H50.903C50.474 0.577993 49.977 0.429993 49.462 0.429993H2.649C2.151 0.429993 1.668 0.567993 1.253 0.827993C0.468 1.31499 0 2.15799 0 3.08299L0.000999928 29.86C0.000999928 42.155 0.00199995 54.449 0.00399995 66.745C0.00399995 68.525 1.259 69.768 3.056 69.768C10.723 69.77 18.389 69.771 26.056 69.771C33.723 69.771 41.389 69.77 49.056 69.768C50.855 69.768 52.072 68.546 52.083 66.728C52.091 65.336 52.089 63.947 52.087 62.556L52.085 61.398C52.085 60.867 51.952 60.47 51.693 60.215Z" fill="#2E2E3E"/>
<path d="M68.021 45.371C68.022 43.576 68.023 41.782 68.016 39.987C68.01 38.488 67.002 37.48 65.509 37.479C52.036 37.473 38.561 37.473 25.086 37.479C23.622 37.479 22.59 38.483 22.577 39.921C22.553 42.451 22.558 45.025 22.564 47.513L22.568 49.82C22.568 50.737 22.835 51.346 23.36 51.631C24.108 52.037 24.086 52.6 24.059 53.313L24.056 53.393C24.048 53.622 24.05 53.85 24.052 54.079L24.054 54.362C24.056 56.151 24.957 57.061 26.732 57.067C27.504 57.07 28.276 57.069 29.053 57.069L29.939 57.068C29.972 57.666 29.964 58.259 29.956 58.835C29.944 59.702 29.934 60.523 30.049 61.358H8.00701V8.70901H44.111L44.112 34.173C44.112 34.229 44.11 34.285 44.109 34.342C44.104 34.528 44.099 34.72 44.144 34.906C44.29 35.513 44.716 35.828 45.295 35.781C45.857 35.733 46.217 35.374 46.28 34.799C46.295 34.667 46.293 34.535 46.291 34.408L46.289 34.272C46.29 25.81 46.29 17.349 46.289 8.88701C46.289 7.23901 45.55 6.50301 43.892 6.50301C31.982 6.50201 20.069 6.50201 8.16001 6.50301C6.57101 6.50301 5.79901 7.27601 5.79901 8.86701V61.116C5.79901 62.834 6.53701 63.566 8.26801 63.566H43.871L43.995 63.567C44.037 63.567 44.079 63.568 44.121 63.568C44.19 63.568 44.259 63.567 44.327 63.563C45.444 63.506 46.25 62.696 46.286 61.592C46.303 61.095 46.298 60.617 46.289 60.044C46.278 59.27 45.876 58.806 45.211 58.804C45.21 58.804 45.208 58.804 45.207 58.804C44.549 58.804 44.13 59.276 44.114 60.036C44.106 60.371 44.108 60.705 44.11 61.04L44.112 61.366H36.002C36.152 60.574 36.135 59.783 36.117 59.015C36.11 58.683 36.102 58.352 36.108 58.02C36.118 57.508 36.291 57.208 36.668 57.043C36.939 56.926 37.201 56.936 37.423 57.072C37.709 57.247 37.89 57.607 37.918 58.059C38.021 59.681 39.212 60.919 40.752 61.002C40.818 61.005 40.885 61.007 40.95 61.007C42.535 61.007 43.754 59.975 44.012 58.388C44.062 58.083 44.072 57.776 44.082 57.45C44.086 57.335 44.09 57.217 44.096 57.096L49.772 57.104C54.477 57.111 59.181 57.118 63.887 57.121C63.888 57.121 63.889 57.121 63.89 57.121C65.553 57.121 66.518 56.166 66.536 54.499C66.543 53.824 66.55 53.126 66.534 52.439C66.529 52.214 66.591 52.107 66.786 51.995C67.608 51.529 68.024 50.775 68.022 49.757C68.02 48.295 68.02 46.833 68.021 45.371ZM33.938 58.926C33.941 59.431 33.944 59.952 33.928 60.464C33.913 60.965 33.583 61.327 33.118 61.366H32.97C32.487 61.334 32.148 60.973 32.146 60.491C32.135 58.48 32.136 56.47 32.138 54.441L32.139 52.357H41.851C41.916 52.632 41.906 52.91 41.895 53.201C41.89 53.323 41.885 53.444 41.886 53.565C41.897 54.982 41.894 56.377 41.888 57.675C41.885 58.199 41.727 58.824 40.985 58.827C40.983 58.827 40.981 58.827 40.979 58.827C40.604 58.827 40.165 58.701 40.087 57.735C39.949 56.015 38.654 54.805 36.983 54.805C36.932 54.805 36.881 54.806 36.831 54.808C35.196 54.878 33.953 56.233 33.938 57.96C33.935 58.283 33.937 58.604 33.938 58.926ZM26.233 52.36H29.927V54.877L29.058 54.878C28.185 54.88 27.309 54.882 26.435 54.872C26.331 54.871 26.229 54.845 26.231 54.539C26.233 53.994 26.233 53.449 26.233 52.881V52.36ZM44.111 52.362H64.353L64.354 52.928C64.356 53.514 64.357 54.092 64.349 54.669C64.348 54.759 64.326 54.823 64.282 54.866C64.213 54.932 64.093 54.943 64.002 54.943C63.573 54.937 63.145 54.936 62.715 54.935L44.111 54.915V52.362ZM24.736 40.29C24.735 40.029 24.776 39.865 24.865 39.775C24.955 39.684 25.121 39.642 25.386 39.642C25.389 39.642 25.392 39.642 25.394 39.642C30.566 39.656 35.823 39.655 40.907 39.654L45.251 39.653L65.106 39.654C65.84 39.654 65.84 39.654 65.84 40.385C65.84 41.239 65.839 42.093 65.838 42.947C65.836 45.098 65.833 47.323 65.852 49.511C65.855 49.778 65.814 49.944 65.722 50.035C65.631 50.127 65.472 50.168 65.206 50.168C65.204 50.168 65.203 50.168 65.201 50.168C50.848 50.158 37.837 50.159 25.425 50.17C25.14 50.17 24.969 50.126 24.871 50.027C24.775 49.93 24.731 49.756 24.733 49.479C24.756 46.646 24.757 43.64 24.736 40.29Z" fill="#2E2E3E"/>
<path d="M62.648 45.773H28.278C27.828 45.773 27.463 45.408 27.463 44.958C27.463 44.508 27.828 44.143 28.278 44.143H62.648C63.098 44.143 63.463 44.508 63.463 44.958C63.463 45.408 63.099 45.773 62.648 45.773Z" fill="#EE3E3C"/>
</svg>
