<svg width="63" height="71" viewBox="0 0 63 71" fill="none" xmlns="http://www.w3.org/2000/svg">
<path d="M17.9297 69.57C17.9297 70.29 17.3497 70.87 16.6297 70.88H16.6197L11.7197 70.87L6.30968 70.86C6.12968 70.8 5.93968 70.74 5.75968 70.68C5.34968 70.55 4.92968 70.42 4.53968 70.23C1.54968 68.79 0.0296764 66.39 0.0296764 63.08C0.0196764 54.02 0.0196762 44.96 0.0196762 35.9V23.03C0.0296762 22.52 0.169677 22.1 0.449677 21.83C0.679677 21.6 0.979677 21.48 1.32968 21.48L1.33968 21.49C2.12968 21.49 2.63968 22.11 2.63968 23.05L2.64968 41.99V62.96C2.64968 66.17 4.71968 68.25 7.91968 68.25L9.15968 68.26H13.3487C14.6227 68.26 15.8197 68.259 16.4497 68.25C16.4997 68.25 16.5597 68.25 16.6197 68.26C17.3397 68.26 17.9297 68.84 17.9297 69.57Z" fill="#2E2E3E"/>
<path d="M17.8367 45.727C17.8437 46.863 18.4387 47.926 19.4707 48.643C20.3247 49.237 21.2777 49.535 22.3127 49.535C22.6417 49.535 22.9777 49.505 23.3227 49.445C25.1747 49.122 26.9977 47.695 26.8967 45.237C26.8337 43.705 26.8507 42.141 26.8657 40.629C26.8727 39.988 26.8787 39.347 26.8797 38.706C26.8797 38.656 26.8777 38.607 26.8747 38.557C26.8697 38.457 26.8647 38.373 26.8827 38.295L31.6617 36.745V40.525C30.7637 40.688 30.0567 40.979 29.4507 41.432C28.4937 42.148 27.9357 43.176 27.9207 44.254C27.9047 45.328 28.4307 46.369 29.3627 47.109C31.1207 48.503 33.9287 48.466 35.6247 47.026C36.4557 46.322 36.9007 45.477 36.9497 44.516C36.9867 43.784 36.6337 43.324 36.0047 43.282C35.3647 43.244 34.9457 43.645 34.8827 44.363C34.8477 44.759 34.6847 45.081 34.3687 45.375C33.3737 46.303 31.4437 46.279 30.4697 45.328C30.1607 45.025 29.9967 44.671 29.9967 44.304C29.9967 43.941 30.1577 43.591 30.4627 43.292C30.9607 42.804 31.5927 42.572 32.4517 42.562C33.3907 42.551 33.7397 42.202 33.7407 41.272C33.7437 39.395 33.7427 37.517 33.7407 35.64C33.7407 35.034 33.6077 34.656 33.3247 34.45C33.0387 34.242 32.6327 34.235 32.0477 34.425L25.9497 36.416C24.9357 36.747 24.7957 36.941 24.7957 38.009L24.7947 40.018C24.7927 41.851 24.7917 43.685 24.8017 45.518C24.8047 46.046 24.6387 46.445 24.2817 46.775C23.2787 47.698 21.3477 47.669 20.3807 46.718C20.0737 46.415 19.9117 46.061 19.9127 45.695C19.9147 45.331 20.0767 44.981 20.3837 44.683C20.8837 44.196 21.5167 43.966 22.3757 43.958C23.3097 43.95 23.6567 43.597 23.6577 42.66L23.6597 37.404C23.6617 36.138 24.1217 35.498 25.2997 35.122C27.5737 34.397 29.8497 33.675 32.1277 32.962C32.8777 32.728 33.5717 32.804 34.0797 33.175C34.5927 33.551 34.8767 34.197 34.8797 34.995C34.8827 35.887 34.8817 36.778 34.8817 37.669C34.8807 38.583 34.8807 39.497 34.8837 40.411C34.8847 40.797 35.0097 41.13 35.2337 41.347C35.4247 41.532 35.6727 41.613 35.9567 41.619C36.5647 41.602 36.9587 41.132 36.9607 40.423C36.9657 38.546 36.9647 36.668 36.9577 34.79C36.9567 34.469 36.9287 34.192 36.8737 33.943C36.6207 32.798 35.9467 31.855 34.9747 31.288C33.9847 30.711 32.8007 30.588 31.6427 30.944C30.3577 31.338 29.0777 31.744 27.7967 32.151C26.7677 32.478 25.7387 32.805 24.7077 33.125C22.6637 33.76 21.5817 35.224 21.5787 37.359C21.5767 38.436 21.5777 39.514 21.5777 40.607V41.922C20.7197 42.078 20.0407 42.349 19.4527 42.767C18.4187 43.504 17.8297 44.582 17.8367 45.727Z" fill="#EE3E3C"/>
<path d="M39.1597 62.194L39.3067 62.196C39.4747 62.199 39.6427 62.2 39.8077 62.178C40.4467 62.088 40.8537 61.666 40.9227 61.017C40.9847 60.434 40.6947 59.953 40.1287 59.697C39.8297 59.563 39.5307 59.564 39.2677 59.57L39.1407 59.571C32.3297 59.569 23.5317 59.57 16.7237 59.572L16.5977 59.57C16.3577 59.571 16.0877 59.563 15.8117 59.673C15.1947 59.921 14.8947 60.405 14.9647 61.036C15.0367 61.679 15.4477 62.095 16.0937 62.179C16.2057 62.193 16.3197 62.197 16.4337 62.197C16.4857 62.197 16.5377 62.196 16.5897 62.195L16.7397 62.193L28.8747 62.194H39.1597Z" fill="#2E2E3E"/>
<path d="M27.8537 26.657C28.2107 26.751 28.5677 26.796 28.9197 26.796C30.9077 26.796 32.7197 25.359 33.2957 23.167C33.6417 21.85 33.5327 20.759 32.9707 19.924C32.4127 19.095 31.4557 18.587 30.1257 18.413C29.8567 18.378 29.5847 18.367 29.3137 18.356L28.9397 18.339C28.3767 18.329 27.7807 18.38 27.1857 18.491C25.7657 18.756 24.8707 19.498 24.5257 20.696C24.1837 21.882 24.3667 23.229 25.0267 24.392C25.6737 25.529 26.7037 26.354 27.8537 26.657ZM29.9307 23.791C29.5127 24.106 29.0147 24.212 28.5217 24.088C28.0717 23.975 27.6247 23.604 27.3267 23.096C27.0187 22.57 26.9097 21.976 27.0367 21.505C27.0967 21.284 27.2177 21.177 27.4697 21.123C27.9257 21.025 28.4147 20.974 28.9287 20.964L29.3287 21.007C29.6237 21.039 29.9177 21.071 30.2127 21.095C30.6097 21.128 30.8507 21.273 30.8317 21.896C30.8077 22.675 30.4707 23.384 29.9307 23.791Z" fill="#2E2E3E"/>
<path d="M36.1647 54.833L19.7677 54.837C18.8077 54.838 18.2217 55.319 18.2007 56.124C18.1907 56.487 18.3037 56.801 18.5257 57.029C18.8017 57.313 19.2257 57.458 19.7847 57.458L36.1867 57.459C36.2107 57.46 36.2347 57.46 36.2597 57.46C36.5317 57.46 36.8537 57.443 37.1387 57.217C37.6127 56.843 37.7907 56.352 37.6407 55.834C37.5107 55.377 37.1477 54.833 36.1647 54.833Z" fill="#EE3E3C"/>
<path d="M38.7987 20.602C38.8557 21.299 39.2837 21.736 39.9737 21.8C40.0287 21.805 40.0817 21.807 40.1347 21.807C40.7707 21.807 41.2307 21.437 41.3507 20.814C41.4987 20.044 41.4967 19.279 41.3457 18.54C41.2167 17.908 40.7037 17.53 40.0377 17.559C39.3397 17.596 38.8787 18.027 38.8057 18.711C38.7817 18.94 38.7867 19.172 38.7927 19.404C38.7927 19.409 38.7927 19.414 38.7927 19.419L38.7887 19.961C38.7847 20.176 38.7807 20.39 38.7987 20.602Z" fill="#EE3E3C"/>
<path d="M19.0507 18.829C19.0157 18.098 18.5647 17.625 17.8457 17.563C17.1067 17.502 16.5447 17.952 16.4597 18.661C16.3797 19.327 16.3787 20.012 16.4577 20.697C16.5367 21.382 17.0227 21.807 17.7087 21.807C17.7467 21.807 17.7867 21.806 17.8267 21.803C18.5487 21.753 18.9947 21.302 19.0487 20.565C19.0637 20.356 19.0607 20.146 19.0567 19.937L19.0537 19.659L19.0557 19.406C19.0577 19.214 19.0597 19.021 19.0507 18.829Z" fill="#EE3E3C"/>
<path d="M58.0697 14.69C58.0197 14.68 57.9697 14.67 57.9197 14.67C57.8997 14.67 57.8797 14.66 57.8597 14.65V14.41C57.8197 9.63 54.5997 6.42 49.8397 6.42H45.0397C45.0297 6.16 45.0397 5.9 45.0397 5.65C45.0497 5.16 45.0597 4.66 44.9497 4.16C44.5097 2.18 42.6597 0.819999 40.6297 1.02C38.6297 1.21 37.0997 2.86 36.9997 4.93C36.9897 5.33 36.9897 5.73 36.9997 6.14V6.39H32.9597V6.1C32.9597 5.67 32.9697 5.26 32.9497 4.84C32.8497 2.68 31.0897 1.01 28.9197 1.01H28.8597C26.7397 1.04 24.9797 2.79 24.9297 4.92C24.9197 5.32 24.9197 5.72 24.9197 6.12V6.38H20.8797C20.8697 6.18 20.8697 5.99 20.8797 5.79C20.8797 5.18 20.8897 4.56 20.7097 3.94C20.1797 2.05 18.3797 0.819999 16.4397 1.02C14.4697 1.22 12.9597 2.81 12.8497 4.81C12.8297 5.24 12.8397 5.67 12.8397 6.11C12.8397 6.22 12.8497 6.32 12.8497 6.43C12.6197 6.43 9.40968 6.42 9.18968 6.42C8.50968 6.42 7.85968 6.41 7.21968 6.43C3.72968 6.55 0.68968 9.23 0.14968 12.67C-0.0303204 13.85 -0.0103205 15.03 0.0196795 16.18C0.0296795 16.76 0.0396797 17.34 0.0296797 17.91C0.0196797 18.42 0.14968 18.83 0.41968 19.1C0.64968 19.34 0.95968 19.46 1.32968 19.46C1.73968 19.5 2.06968 19.32 2.30968 19.04C2.52968 18.77 2.63968 18.39 2.64968 17.93V16.32C2.63968 15.5 2.63968 14.69 2.64968 13.88C2.67968 11.87 3.92968 10.1 5.82968 9.37C6.79968 9 7.78968 9.02 8.83968 9.04C9.17968 9.05 12.4897 9.06 12.8297 9.05C12.8397 9.3 12.8297 9.53 12.8297 9.77C12.8197 10.32 12.8197 10.89 12.9597 11.45C13.4697 13.38 15.2697 14.64 17.2497 14.44C19.2597 14.24 20.7397 12.63 20.8597 10.52C20.8797 10.12 20.8797 9.72 20.8697 9.31V9.07H24.9197V10.41C24.9497 12.68 26.7197 14.45 28.9397 14.45C30.0497 14.45 31.0497 14 31.7697 13.28C32.4897 12.55 32.9397 11.54 32.9597 10.4V9.04H36.9997L36.9897 9.29C36.9897 9.65 36.9897 9.99 36.9997 10.32C37.0397 12.68 38.7697 14.45 41.0397 14.45H41.0797C43.3297 14.43 44.9997 12.68 45.0397 10.29C45.0397 10.13 45.0297 9.98 45.0297 9.82C45.0197 9.55 45.0097 9.3 45.0397 9.06H45.1597C47.3497 8.97 52.4097 8.89 53.9797 10.7C54.9197 11.79 55.3297 13.08 55.2197 14.63C52.1297 15.42 50.1597 18.04 50.1897 21.36C50.2497 31.36 50.2297 41.53 50.2097 51.36L50.1997 54.51C50.1997 56.49 50.7897 58.18 51.9997 59.68C52.5497 60.36 53.0897 61.05 53.6197 61.73C54.0697 62.31 54.5197 62.88 54.9797 63.45C55.1597 63.68 55.2097 63.85 55.1597 64.13C54.7197 66.59 52.7097 68.25 50.1397 68.25C41.7297 68.26 30.3397 68.25 21.9297 68.25C21.8097 68.25 21.6697 68.25 21.5197 68.26H21.3297C20.5997 68.26 20.0197 68.84 20.0197 69.57C20.0197 70.16 20.4197 70.65 20.9697 70.8L20.9897 70.83H20.9997L21.2097 70.86C21.2197 70.86 21.2297 70.87 21.2397 70.87C21.2697 70.88 21.2997 70.88 21.3297 70.88H50.2897L51.5997 70.73C51.8197 70.69 52.0197 70.64 52.2097 70.59C52.3997 70.54 52.5797 70.49 52.7497 70.43C52.8797 70.39 52.9897 70.35 53.0897 70.3C53.1797 70.27 53.2697 70.23 53.3697 70.19C53.4497 70.16 53.5197 70.13 53.5697 70.1C53.6497 70.07 53.7197 70.03 53.7597 70.01C53.8097 69.98 53.8297 69.97 53.8297 69.97C55.9597 68.86 57.3997 66.84 57.7697 64.32C57.8297 63.92 57.9297 63.66 58.1197 63.43C59.2497 62.03 60.3697 60.58 61.3297 59.33C62.3497 58.01 62.8697 56.5 62.8697 54.82C62.8797 53.04 62.8797 51.26 62.8697 49.47C62.8697 48.51 62.3797 47.94 61.5797 47.93C61.5697 47.93 61.5597 47.93 61.5597 47.93C61.1997 47.93 60.8897 48.05 60.6697 48.27C60.3997 48.53 60.2497 48.94 60.2497 49.45V51.53H52.8697V24.91H60.2497V44.2C60.2497 44.74 60.3997 45.17 60.6897 45.45C60.9197 45.68 61.2397 45.78 61.5897 45.79C62.3797 45.77 62.8697 45.16 62.8697 44.21V39.28C62.8797 33.14 62.8797 27.01 62.8697 20.87C62.8597 17.91 60.9397 15.43 58.0697 14.69ZM18.2397 10.36C18.2297 10.81 18.0697 11.2 17.7897 11.47C17.5397 11.71 17.1797 11.83 16.8097 11.83C16.0097 11.8 15.4897 11.21 15.4697 10.33C15.4497 9.72 15.4597 9.11 15.4597 8.51V6.91C15.4597 6.32 15.4497 5.73 15.4697 5.14C15.4897 4.25 16.0097 3.66 16.7997 3.63H16.8497C17.2097 3.63 17.5497 3.76 17.7897 3.99C18.0697 4.26 18.2297 4.65 18.2397 5.1C18.2697 6.86 18.2697 8.63 18.2397 10.36ZM30.3297 10.39C30.3197 11.21 29.7197 11.83 28.9397 11.83C28.9297 11.83 28.9297 11.83 28.9297 11.83C28.1397 11.82 27.5597 11.21 27.5497 10.37C27.5397 9.76 27.5397 9.15 27.5397 8.54L27.5497 7.73L27.5397 6.94C27.5397 6.32 27.5397 5.71 27.5497 5.1C27.5597 4.26 28.1397 3.64 28.9197 3.63C28.9197 3.63 28.9297 3.63 28.9397 3.63C29.7197 3.63 30.3197 4.24 30.3297 5.06C30.3497 6.8 30.3497 8.6 30.3297 10.39ZM42.4097 8.55C42.4097 9.16 42.4197 9.77 42.3997 10.38C42.3897 11.21 41.8397 11.8 41.0697 11.83C40.6897 11.83 40.3297 11.71 40.0597 11.46C39.7997 11.21 39.6497 10.87 39.6397 10.5C39.5997 8.73 39.5897 6.87 39.6397 4.98C39.6497 4.59 39.7997 4.24 40.0697 4C40.3297 3.76 40.6597 3.63 41.0197 3.63H41.0597C41.8297 3.65 42.3797 4.24 42.3997 5.06C42.4197 5.68 42.4097 6.3 42.4097 6.93V8.55ZM56.5397 61.2L55.4497 59.82C56.1297 59.56 56.8797 59.56 57.6297 59.81L56.5397 61.2ZM60.2397 54.22C60.3197 55.62 60.0197 56.71 59.3297 57.62C58.2897 57.2 57.4297 56.99 56.5597 56.99C55.6897 56.99 54.8097 57.2 53.7497 57.62C53.0497 56.72 52.7597 55.63 52.8497 54.22H60.2397ZM60.2497 21.85C60.2397 21.98 60.2397 22.1 60.2397 22.23H52.8897C52.5097 19.61 53.4797 17.85 55.6397 17.26C56.6797 16.98 57.7897 17.18 58.6897 17.82C59.5897 18.47 60.1597 19.45 60.2297 20.54C60.2597 20.96 60.2497 21.4 60.2497 21.85Z" fill="#2E2E3E"/>
</svg>
