<svg width="68" height="70" viewBox="0 0 68 70" fill="none" xmlns="http://www.w3.org/2000/svg">
<path d="M6.32201 7.869C6.64901 7.921 6.73801 8.182 6.83001 8.441C7.13301 9.292 7.46601 10.134 7.73101 10.998C7.87201 11.46 8.13901 11.714 8.56701 11.888C9.21501 12.151 9.84901 12.451 10.485 12.744C10.824 12.9 11.269 12.978 11.257 13.479C11.247 13.938 10.837 14.016 10.513 14.163C9.85501 14.462 9.20901 14.792 8.53501 15.049C8.08301 15.221 7.86001 15.513 7.72101 15.955C7.47601 16.73 7.19601 17.495 6.90501 18.254C6.78401 18.569 6.78601 19.037 6.28401 19.024C5.83101 19.012 5.82701 18.588 5.71501 18.284C5.40901 17.458 5.09401 16.634 4.82201 15.797C4.70501 15.436 4.49301 15.229 4.16201 15.086C3.41501 14.764 2.67501 14.427 1.93301 14.094C1.64401 13.964 1.33601 13.856 1.35201 13.442C1.36701 13.072 1.63301 12.964 1.90901 12.842C2.59101 12.541 3.25901 12.206 3.95201 11.933C4.45601 11.734 4.75801 11.421 4.91701 10.898C5.17401 10.056 5.48601 9.231 5.78401 8.401C5.87601 8.145 5.98201 7.883 6.32201 7.869Z" fill="#2E2E3E"/>
<path d="M17.697 0.152008C17.941 0.191008 18.007 0.386008 18.076 0.579008C18.303 1.21501 18.551 1.84301 18.748 2.48801C18.853 2.83301 19.052 3.02301 19.372 3.15201C19.856 3.34801 20.329 3.57301 20.804 3.79101C21.057 3.90801 21.389 3.96501 21.381 4.34001C21.373 4.68301 21.067 4.74101 20.826 4.85101C20.335 5.07501 19.852 5.32101 19.349 5.51301C19.012 5.64201 18.845 5.85901 18.741 6.18901C18.558 6.76801 18.349 7.33901 18.132 7.90501C18.042 8.14001 18.043 8.49001 17.668 8.48001C17.33 8.47101 17.327 8.15401 17.243 7.92801C17.014 7.31101 16.779 6.69601 16.576 6.07101C16.489 5.80101 16.331 5.64701 16.083 5.54001C15.526 5.30001 14.973 5.04901 14.419 4.80001C14.203 4.70301 13.973 4.62201 13.985 4.31301C13.996 4.03701 14.195 3.95601 14.401 3.86501C14.91 3.64101 15.409 3.39001 15.927 3.18601C16.303 3.03801 16.528 2.80401 16.648 2.41301C16.84 1.78401 17.073 1.16801 17.295 0.549008C17.364 0.357008 17.443 0.162008 17.697 0.152008Z" fill="#2E2E3E"/>
<path d="M63.729 13.569C64.061 13.555 64.118 13.805 64.193 14.009C64.413 14.603 64.633 15.197 64.818 15.803C64.934 16.184 65.156 16.413 65.522 16.559C66.068 16.777 66.609 17.011 67.132 17.278C67.604 17.519 67.59 17.857 67.129 18.125C67.071 18.159 67.009 18.193 66.944 18.208C65.347 18.574 64.555 19.66 64.247 21.195C64.196 21.451 64.15 21.794 63.823 21.822C63.423 21.857 63.449 21.441 63.313 21.203C63.302 21.184 63.296 21.161 63.292 21.138C63.028 19.596 62.183 18.587 60.636 18.198C60.409 18.141 60.143 18.051 60.123 17.729C60.101 17.363 60.387 17.263 60.64 17.2C62.188 16.811 63.011 15.792 63.306 14.261C63.353 14.004 63.386 13.654 63.729 13.569Z" fill="#EE3E3C"/>
<path d="M62.476 3.627C62.473 4.997 61.392 6.083 60.029 6.088C58.641 6.093 57.533 4.973 57.551 3.583C57.569 2.224 58.67 1.152 60.039 1.163C61.411 1.172 62.48 2.253 62.476 3.627Z" fill="#2E2E3E"/>
<path d="M2.14001 5.482C2.14001 6.07 1.63501 6.54901 1.03301 6.53101C0.459014 6.51501 -0.00298547 6.046 1.4528e-05 5.48C0.00301453 4.884 0.496015 4.416 1.10401 4.43301C1.67701 4.45001 2.14101 4.92 2.14001 5.482Z" fill="#EE3E3C"/>
<path d="M4.92102 42.726C4.92102 41.909 4.91602 41.092 4.92202 40.275C4.92902 39.313 5.48902 38.667 6.30502 38.667C7.09502 38.666 7.67502 39.271 7.68902 40.205C7.71402 41.884 7.71402 43.565 7.68902 45.244C7.67502 46.18 7.09602 46.785 6.30802 46.786C5.49302 46.786 4.93002 46.139 4.92302 45.178C4.91602 44.36 4.92102 43.543 4.92102 42.726Z" fill="#EE3E3C"/>
<path d="M4.91701 35.12C4.91101 34.131 5.48601 33.457 6.32501 33.469C7.14901 33.481 7.68701 34.117 7.69201 35.088C7.69701 36.097 7.14401 36.745 6.28901 36.734C5.46601 36.724 4.92301 36.084 4.91701 35.12Z" fill="#EE3E3C"/>
<path d="M37.861 58.287C32.766 58.274 28.679 54.153 28.7 49.05C28.721 43.995 32.837 39.887 37.883 39.885C42.945 39.883 47.101 44.043 47.098 49.107C47.096 54.179 42.948 58.3 37.861 58.287ZM37.849 56.632C42.027 56.652 45.458 53.242 45.443 49.084C45.428 44.947 42.02 41.545 37.891 41.545C33.748 41.545 30.363 44.926 30.351 49.077C30.339 53.23 33.696 56.613 37.849 56.632Z" fill="#2E2E3E"/>
<path d="M37.919 15.937C35.446 15.937 32.974 15.94 30.501 15.936C28.841 15.933 28.166 15.247 28.164 13.573C28.163 12.62 28.153 11.667 28.167 10.715C28.186 9.475 28.965 8.706 30.236 8.692C31.801 8.675 33.366 8.688 34.932 8.688C38.38 8.688 41.828 8.687 45.276 8.689C46.906 8.69 47.63 9.421 47.634 11.063C47.636 11.948 47.64 12.832 47.633 13.717C47.621 15.19 46.888 15.928 45.405 15.934C42.91 15.944 40.415 15.937 37.919 15.937ZM37.858 14.28C40.353 14.28 42.849 14.271 45.344 14.288C45.806 14.291 45.999 14.16 45.984 13.675C45.956 12.768 45.964 11.86 45.981 10.953C45.989 10.532 45.863 10.333 45.403 10.334C40.389 10.344 35.376 10.342 30.362 10.336C29.961 10.335 29.793 10.471 29.804 10.892C29.827 11.799 29.846 12.708 29.798 13.613C29.768 14.183 29.996 14.294 30.507 14.29C32.958 14.269 35.408 14.281 37.858 14.28Z" fill="#EE3E3C"/>
<path d="M42.248 50.907C42.244 52.35 41.079 53.502 39.647 53.479C38.242 53.456 37.123 52.309 37.126 50.895C37.129 49.482 38.256 48.338 39.66 48.323C41.093 48.307 42.252 49.465 42.248 50.907Z" fill="#EE3E3C"/>
<path d="M63.794 41.413L63.79 35.651C63.79 34.522 63.512 33.487 62.963 32.575C61.759 30.573 59.992 29.523 57.71 29.454C56.51 29.418 55.286 29.427 54.102 29.436C53.56 29.44 53.018 29.444 52.475 29.444H52.308L52.212 28.901C51.89 27.069 51.586 25.339 50.106 24.082C48.625 22.825 46.88 22.848 45.04 22.868L44.481 22.873V22.111C44.481 21.488 44.481 20.91 44.482 20.332C44.482 20.267 44.492 20.201 44.507 20.115L44.552 19.809L45.507 19.81C46.068 19.812 46.621 19.812 47.176 19.808C49.798 19.788 51.502 18.092 51.517 15.487C51.529 13.493 51.529 11.422 51.517 9.155C51.504 6.558 49.763 4.811 47.185 4.808C40.988 4.8 34.79 4.801 28.593 4.808C26.027 4.81 24.295 6.53 24.283 9.087C24.274 11.197 24.278 13.308 24.282 15.419C24.287 18.113 25.97 19.795 28.673 19.808C29.211 19.811 29.748 19.811 30.283 19.809L31.231 19.808V22.974L31.004 22.943C28.577 22.615 26.695 22.982 25.409 24.036C24.13 25.083 23.405 26.838 23.251 29.25L23.239 29.438L21.76 29.435C20.782 29.433 19.849 29.428 18.916 29.445C18.254 29.455 17.513 29.469 16.931 28.764C16.728 28.518 16.363 28.355 16.036 28.222C15.609 28.047 15.432 27.792 15.405 27.313C15.271 24.954 13.67 23.198 11.421 22.943C10.989 22.894 10.547 22.881 10.106 22.881C9.831 22.881 9.555 22.886 9.284 22.891C9.029 22.896 8.774 22.901 8.519 22.902C5.86 22.911 4.01 24.61 3.805 27.231C3.764 27.757 3.586 28.022 3.125 28.243C1.621 28.96 0.714004 30.15 0.431004 31.78C0.370004 32.127 0.340004 32.48 0.340004 32.827C0.330004 43.452 0.327004 54.076 0.333004 64.701C0.334004 67.634 2.38 69.763 5.195 69.764C25.486 69.777 42.127 69.778 57.567 69.762C61.041 69.759 63.771 67.04 63.782 63.572C63.807 56.187 63.8 48.676 63.794 41.413ZM7.953 25.314C8.959 25.176 10.047 25.173 11.189 25.305C12.315 25.435 12.981 26.263 13.013 27.576L13.018 27.781H6.214L6.204 27.591C6.142 26.362 6.828 25.468 7.953 25.314ZM16.503 64.483C16.503 66.461 15.538 67.421 13.554 67.421H10.876H5.521C3.697 67.419 2.692 66.432 2.69 64.642C2.686 54.067 2.687 43.493 2.69 32.917C2.69 31.093 3.662 30.128 5.498 30.126C8.244 30.124 10.99 30.123 13.736 30.126C15.518 30.128 16.5 31.111 16.502 32.894C16.504 36.729 16.504 40.564 16.503 44.399V64.483ZM28.818 39.997C31.25 37.58 34.474 36.25 37.9 36.25C37.912 36.25 37.923 36.25 37.935 36.25C44.994 36.269 50.736 42.037 50.734 49.108C50.733 52.546 49.384 55.782 46.937 58.217C44.51 60.633 41.302 61.961 37.899 61.961C37.879 61.961 37.86 61.961 37.84 61.961C30.762 61.93 25.013 56.152 25.025 49.083C25.031 45.65 26.378 42.423 28.818 39.997ZM28.664 17.457C27.314 17.456 26.628 16.776 26.624 15.437C26.619 13.349 26.618 11.261 26.624 9.174C26.628 7.849 27.301 7.176 28.625 7.174C34.797 7.165 40.969 7.165 47.142 7.174C48.479 7.176 49.133 7.829 49.142 9.169C49.154 11.091 49.154 13.14 49.142 15.434C49.135 16.813 48.49 17.456 47.11 17.457C44.866 17.458 42.622 17.458 40.377 17.458H35.227C34.355 17.458 33.484 17.458 32.612 17.458C31.297 17.458 29.98 17.458 28.664 17.457ZM42.101 19.856V22.846H33.7V19.856H42.101ZM18.885 31.79H23.699C24.869 31.789 25.168 31.541 25.383 30.394C25.559 29.457 25.736 28.521 25.929 27.589C26.225 26.158 27.336 25.233 28.758 25.23C34.75 25.223 40.74 25.222 46.732 25.23C48.128 25.232 49.193 26.09 49.512 27.468C49.674 28.165 49.812 28.879 49.946 29.569C50.017 29.936 50.089 30.302 50.163 30.669C50.329 31.481 50.698 31.783 51.523 31.787C52.583 31.792 53.641 31.79 54.701 31.79C55.57 31.789 56.44 31.79 57.309 31.79C59.796 31.797 61.417 33.41 61.438 35.9C61.444 36.662 61.443 37.424 61.441 38.218L61.44 39.524L56.727 39.523C54.601 39.523 52.475 39.522 50.348 39.53C50.346 39.53 50.344 39.53 50.341 39.53C49.889 39.53 49.593 39.403 49.322 39.093C46.446 35.808 42.311 33.91 37.978 33.886C37.95 33.886 37.922 33.886 37.894 33.886C33.586 33.886 29.461 35.738 26.562 38.975C26.206 39.372 25.852 39.537 25.344 39.537C25.334 39.537 25.324 39.537 25.315 39.537C23.805 39.516 22.329 39.518 20.764 39.521L18.886 39.524V31.79H18.885ZM61.444 41.496C61.44 41.545 61.435 41.594 61.435 41.641C61.44 48.835 61.442 56.03 61.437 63.224C61.435 65.812 59.833 67.42 57.255 67.42L28.71 67.421H18.189L18.331 67.132C18.894 65.988 18.875 64.803 18.856 63.656C18.852 63.438 18.849 63.221 18.849 63.005C18.853 57.855 18.852 52.705 18.851 47.556V40.882H25.046L24.919 41.102C22.443 45.412 22.004 49.863 23.614 54.333C24.732 57.436 26.715 59.94 29.509 61.777C35.097 65.448 42.36 65.068 47.577 60.83C52.542 56.797 55.279 48.729 50.901 41.112L50.768 40.881H61.295C61.483 41.077 61.462 41.319 61.444 41.496Z" fill="#2E2E3E"/>
</svg>
