<svg width="70" height="70" viewBox="0 0 70 70" fill="none" xmlns="http://www.w3.org/2000/svg">
<path d="M69.8908 65.3412C69.8788 64.914 69.8763 64.4842 69.8744 64.0544C69.8681 62.9047 69.8624 61.7165 69.662 60.5674C68.7841 55.5118 65.9437 51.7745 61.2167 49.4606C61.1238 49.4151 60.9854 49.1945 60.9822 49.0864C60.9531 48.2326 60.9569 47.3597 60.9601 46.5159C60.962 46.1437 60.9633 45.7714 60.962 45.3991C60.9519 41.7523 58.4048 39.2001 54.7686 39.1938C53.1538 39.1906 51.5395 39.1919 49.924 39.1919H46.4649C46.4118 39.1919 46.3581 39.1906 46.3063 39.1887L46.6507 38.3007C47.2265 36.8141 47.796 35.3459 48.3812 33.8827C48.4407 33.7336 48.6195 33.5749 48.7693 33.4536C49.2377 33.0712 49.7123 32.6951 50.187 32.3191C51.0308 31.6504 51.9036 30.9589 52.7316 30.239C54.1025 29.047 54.5733 27.4909 54.0911 25.7395C53.6291 24.0608 52.4642 22.9611 50.7217 22.5604C50.6168 22.5364 50.5118 22.5104 50.4038 22.4833L50.5593 22.0465C50.8032 21.3671 51.0541 20.6902 51.3044 20.0132C51.8448 18.5564 52.4023 17.0502 52.8845 15.5435C54.0216 11.9901 53.4338 8.18336 51.269 5.09838C49.1669 2.10251 45.9055 0.306885 42.3212 0.172893C37.7352 0.000978147 32.5341 -0.19369 27.426 0.406748C21.9089 1.05332 16.7135 2.89193 11.9833 5.87073C11.582 6.12355 11.1781 6.78845 11.2388 7.3004C11.2969 7.78897 11.8057 8.30029 12.2646 8.51202C12.7822 8.75157 13.3296 8.92095 13.8592 9.08528C14.1487 9.17503 14.4388 9.26478 14.7239 9.36591C16.2812 9.91894 16.9177 11.2285 16.3868 12.784C15.8287 14.4153 15.9418 15.9537 16.7319 17.487C17.3664 18.7182 17.9827 19.9595 18.6046 21.2135L19.267 22.5446C17.3525 22.9725 16.1365 24.1797 15.749 26.041C15.3761 27.8303 16.0025 29.3725 17.6098 30.6252C19.0281 31.73 20.0981 32.5902 21.0797 33.415C21.2971 33.5977 21.5019 33.8928 21.6396 34.2247C21.9367 34.937 22.2161 35.6562 22.4961 36.3749C22.7204 36.9519 22.9448 37.5296 23.178 38.1029C23.3221 38.4581 23.4934 38.7943 23.6742 39.1508C23.6811 39.1647 23.6887 39.1798 23.6957 39.1938L21.3053 39.1906C19.1083 39.1862 16.9423 39.1817 14.777 39.2007C11.8753 39.2266 9.47983 41.2631 9.08102 44.0421C8.89267 45.3568 8.91858 46.7112 8.94386 48.0202L8.9565 48.7546C8.96282 49.2381 8.84969 49.4138 8.38135 49.6515C3.5494 52.1044 0.784863 55.9915 0.167992 61.2077C-0.019724 62.7954 -0.00645118 64.4235 0.00682165 65.9992C0.011878 66.6426 0.0169343 67.2873 0.00934982 67.9294C0.000501262 68.6847 0.0643372 69.2239 0.410695 69.5746C0.758949 69.9273 1.31009 69.9987 2.0856 69.9987H67.8158L67.9606 69.9994C68.0099 70 68.0598 70 68.1091 70C68.1774 70 68.2462 69.9994 68.3158 69.9975C69.3315 69.964 69.8769 69.4211 69.8921 68.4256C69.9072 67.3827 69.9193 66.3613 69.8908 65.3412ZM67.0125 65.8424C67.0075 66.2482 67.0018 66.6565 66.9992 67.0661H60.9734V52.5955C61.0151 52.6176 61.0549 52.6417 61.0947 52.6657C64.7738 54.9486 66.7559 58.2788 66.9853 62.5653C67.0435 63.6467 67.0289 64.7136 67.0125 65.8424ZM18.6855 26.2332C18.9857 25.6517 19.4345 25.3628 20.0855 25.3394L20.4565 29.2069C20.4166 29.1753 20.3781 29.1443 20.3389 29.1134C19.832 28.7082 19.3529 28.3258 18.9187 27.9125C18.4839 27.4985 18.3884 26.8083 18.6855 26.2332ZM50.6629 28.2234C50.2622 28.5527 49.8558 28.8744 49.4481 29.1955L49.8103 25.3622C50.5548 25.4039 51.0333 25.7364 51.2678 26.3735C51.5218 27.0624 51.3177 27.6849 50.6629 28.2234ZM19.0407 14.0417C20.0027 10.5946 19.1589 8.46399 16.127 6.82132C16.2509 6.75179 16.3716 6.68606 16.4955 6.62602C21.4115 4.23438 26.6378 3.01391 32.0291 2.99811C35.147 2.98926 38.2623 2.98926 41.3789 2.99811C44.4677 3.00633 47.2145 4.39113 48.9153 6.79793C50.6174 9.20664 51.0061 12.2625 49.9809 15.1807C49.8191 15.6421 49.6561 16.0782 49.4898 16.4947C48.9229 14.1707 47.5944 12.2518 46.3044 10.3885C45.9049 9.81086 45.5048 9.23318 45.1275 8.64412C44.8709 8.24404 44.5321 7.99691 44.1478 7.92992C43.7509 7.86039 43.3211 7.98743 42.9141 8.30029C42.1923 8.85396 41.4237 9.47083 40.5648 10.1844C38.7913 11.6583 36.8042 12.3845 34.4896 12.4041C32.2263 12.4237 30.0534 13.1215 28.0327 14.4791C26.2952 15.6452 24.5533 16.805 22.7824 17.9831L20.8395 19.2769C20.7017 18.9912 20.5627 18.7081 20.4242 18.4249C19.9186 17.3928 19.4401 16.4176 19.0217 15.3962C18.8896 15.0758 18.8979 14.5575 19.0407 14.0417ZM34.3575 15.2995C37.4539 15.2894 40.2159 14.2731 42.5646 12.279C42.8161 12.0654 43.0765 11.8618 43.3363 11.6583L43.531 11.5104C46.7613 15.972 47.0913 17.0528 46.8656 22.4428H37.8603C36.1481 22.4428 35.7721 22.8132 35.7398 24.5292C35.7392 24.5665 35.7379 24.6038 35.736 24.6417H34.1622C34.1629 24.483 34.1629 24.3238 34.161 24.1645C34.1477 22.9769 33.6168 22.446 32.4412 22.4441C30.2847 22.4409 28.1294 22.4415 25.9723 22.4422L22.9909 22.4428C22.9903 22.4118 22.9897 22.3809 22.989 22.3505C22.9821 22.0396 22.9758 21.7457 23.0093 21.4682C23.0181 21.3962 23.1148 21.2514 23.2216 21.1794C25.8162 19.4267 27.9512 17.9996 29.9421 16.6887C31.3339 15.7723 32.8192 15.3052 34.3575 15.2995ZM42.4002 28.5363C42.3788 28.9497 42.0179 29.1127 41.7158 29.1266C40.927 29.1627 40.1432 29.1633 39.381 29.1292C38.7509 29.1001 38.6434 28.5957 38.6358 28.298C38.6207 27.7197 38.6232 27.1401 38.6263 26.5618L38.6289 25.3609H42.4205C42.4217 25.5942 42.4236 25.8274 42.4262 26.06C42.4344 26.874 42.4432 27.7165 42.4002 28.5363ZM31.253 28.4364C31.2384 28.8384 30.9862 29.0938 30.5786 29.1203C29.8119 29.1709 29.0061 29.1715 28.1857 29.1235C27.7433 29.0982 27.4923 28.8409 27.4778 28.401C27.4525 27.63 27.4576 26.8677 27.4633 26.0606C27.4645 25.8293 27.4664 25.5961 27.4671 25.3609H31.2656C31.2662 25.5916 31.2681 25.8211 31.27 26.0499C31.2764 26.8715 31.282 27.6477 31.253 28.4364ZM24.5736 25.3698V27.9434C24.5761 30.538 26.062 32.0277 28.649 32.0308L29.1502 32.0327C29.5901 32.0346 30.0287 32.0365 30.4692 32.0283C32.5657 31.9904 34.118 30.4394 34.1604 28.3404C34.1648 28.1078 34.1635 27.8752 34.1622 27.6319V27.599H35.7411V27.6262C35.7392 27.8935 35.7373 28.1628 35.7449 28.4308C35.8037 30.4173 37.3351 31.962 39.3083 32.0233C40.1357 32.0485 40.9649 32.0485 41.7714 32.0226C43.7509 31.9582 45.2779 30.4097 45.3222 28.42C45.3392 27.654 45.3348 26.8873 45.3304 26.1086L45.3279 25.3692H46.9004C46.8789 25.6308 46.8587 25.8918 46.8397 26.1529C46.779 26.9524 46.7164 27.7798 46.6021 28.578C46.0882 32.1794 44.9126 35.6253 43.1094 38.8202C42.9375 39.1242 42.8085 39.2045 42.4862 39.2045C42.483 39.2045 42.4805 39.2045 42.478 39.2045C40.0876 39.1957 37.6979 39.1938 35.3081 39.1925C32.6744 39.1906 30.0413 39.1887 27.4083 39.1773C27.2187 39.1767 26.9557 39.044 26.9109 38.9669C24.511 34.8472 23.2014 30.2833 23.0181 25.4014C23.0175 25.3906 23.0175 25.3805 23.0175 25.3698H24.5736ZM58.0748 67.085H11.8279L11.8285 45.456C11.8291 43.2799 13.0395 42.0815 15.2358 42.0815H54.6511C56.8898 42.0815 58.0736 43.2673 58.0742 45.5097L58.0748 67.085ZM8.9091 52.6157V67.073H2.92558C2.94265 66.4492 2.94517 65.8222 2.94707 65.1946C2.95276 63.6328 2.95781 62.018 3.21885 60.4872C3.78579 57.1506 5.6996 54.503 8.90657 52.6176C8.9072 52.617 8.90784 52.6164 8.9091 52.6157Z" fill="#2E2E3E"/>
<path d="M34.9491 54.8273C34.9415 54.8273 34.9333 54.8273 34.9251 54.8273C33.6452 54.8336 32.4444 55.3405 31.5424 56.2544C30.6399 57.1696 30.1482 58.38 30.1589 59.663C30.1696 60.9429 30.681 62.1419 31.5993 63.04C32.5063 63.9274 33.7015 64.414 34.9687 64.414C34.9833 64.414 34.9984 64.414 35.0136 64.414C37.6258 64.39 39.7469 62.236 39.7432 59.6124C39.7413 58.3319 39.2388 57.1285 38.328 56.2222C37.421 55.3221 36.2227 54.8273 34.9491 54.8273ZM33.048 59.5682C33.0694 58.5569 33.9353 57.7169 34.946 57.7169C34.958 57.7169 34.9706 57.7176 34.9833 57.7176C36.0249 57.7384 36.8636 58.6012 36.8528 59.6396C36.8421 60.6799 35.9806 61.5073 34.9453 61.5218C34.4334 61.5206 33.953 61.3164 33.5928 60.9473C33.2306 60.5757 33.0366 60.0858 33.048 59.5682Z" fill="#EE3E3C"/>
<path d="M28.6565 44.0238L28.2685 43.6086C27.8381 43.1484 27.1131 43.1339 26.665 43.577L25.9697 44.2646C25.1449 45.078 24.3271 45.8852 23.5187 46.698C22.5517 47.67 22.551 49.2388 23.5168 50.2127C24.3385 51.0413 25.1664 51.8617 25.99 52.6764L26.6403 53.3211C27.0714 53.7484 27.7647 53.7541 28.2021 53.3338L28.6957 52.8597C29.1514 52.4224 29.1546 51.6949 28.7033 51.2537L26.5677 49.1648C26.117 48.7237 26.1195 47.9974 26.574 47.5601L28.6155 45.5938C29.0554 45.1697 29.0737 44.4707 28.6565 44.0238Z" fill="#EE3E3C"/>
<path d="M45.7267 46.0154C45.3361 45.6267 44.9455 45.238 44.5599 44.8448C44.1377 44.4138 43.7244 43.9732 43.311 43.5333C42.88 43.0764 42.1575 43.0637 41.7113 43.5055L41.2316 43.9796C40.786 44.4201 40.7892 45.1406 41.2386 45.5767L43.3692 47.6473C43.8204 48.0859 43.8211 48.8102 43.3704 49.2501L41.3075 51.2626C40.8764 51.6829 40.8555 52.3686 41.26 52.8148L41.6842 53.2826C42.1133 53.7553 42.8509 53.7737 43.3028 53.3224L44.0145 52.6113C45.0592 51.5697 46.0939 50.5376 47.1134 49.4897C47.7656 48.8204 47.7315 48.0474 47.0173 47.3142C46.5919 46.8768 46.159 46.4458 45.7267 46.0154Z" fill="#EE3E3C"/>
<path d="M38.7578 43.9182L38.2389 43.5295C37.7446 43.1598 37.045 43.2603 36.6746 43.7539L30.9237 51.4168C30.5514 51.9129 30.6538 52.617 31.1518 52.9861L31.6733 53.3729C32.1675 53.7395 32.8647 53.6384 33.2344 53.146L38.9828 45.4844C39.3532 44.9902 39.2527 44.2886 38.7578 43.9182Z" fill="#EE3E3C"/>
</svg>
