<svg width="70" height="70" viewBox="0 0 70 70" fill="none" xmlns="http://www.w3.org/2000/svg">
<path d="M67.118 65.346C68.494 65.346 68.842 64.991 68.842 63.601V57.514C68.842 56.691 68.714 55.89 68.445 55.102C67.608 52.704 64.735 50.945 62.401 51.434C61.287 51.661 60.181 51.923 59.074 52.165C57.684 52.47 56.3 52.761 54.846 53.08V13.489C54.846 11.971 54.527 11.659 52.994 11.659H22.852C22.462 11.659 22.079 11.645 21.689 11.616C18.937 11.41 16.915 8.523 17.667 5.863C18.298 3.621 20.043 2.337 22.498 2.33H48.398C48.653 2.33 48.902 2.344 49.15 2.309C49.739 2.224 50.136 1.763 50.15 1.188C50.157 0.619996 49.781 0.144996 49.199 0.0319961C48.972 -0.00300388 48.745 0.00399612 48.518 0.00399612C39.835 0.00399612 31.152 -0.00300388 22.476 0.00399612C18.241 0.00399612 15.176 3.019 15.169 7.254C15.148 20.286 15.162 33.317 15.162 46.349C15.162 47.895 15.481 49.371 16.269 50.726C16.957 51.925 17.915 52.868 19.135 53.677C18.752 53.819 18.475 53.727 18.199 53.677C14.219 52.918 10.247 52.152 6.267 51.407C5.373 51.237 4.827 51.57 4.685 52.272C4.543 52.996 4.983 53.535 5.877 53.705C13.609 55.181 21.335 56.649 29.067 58.117C30.28 58.344 31.486 58.585 32.699 58.826C32.543 58.932 32.408 58.94 32.273 58.932C24.803 58.769 17.333 58.606 9.863 58.443C8.175 58.408 6.493 58.365 4.805 58.358C3.883 58.351 3.329 59.004 3.564 59.791C3.77 60.507 4.337 60.671 4.997 60.685C7.522 60.735 10.055 60.784 12.58 60.841C19.802 61.004 27.023 61.16 34.245 61.33C34.486 61.33 34.742 61.273 34.954 61.422V63.011H3.819C2.074 63.011 1.18 63.919 1.173 65.664C1.166 66.444 1.208 67.239 1.159 68.026C1.236 69.134 2.152 70 3.279 70H67.664C68.31 70 68.835 69.482 68.835 68.837C68.835 68.191 68.31 67.666 67.664 67.666H50.632C38.019 67.673 25.399 67.673 12.779 67.673H3.535V65.346H67.118ZM62.351 53.847C64.323 53.421 66.054 54.563 66.437 56.543C66.543 57.111 66.522 57.678 66.494 58.246C66.267 58.423 66.005 58.338 65.763 58.338C62.961 58.345 60.159 58.338 57.357 58.352C56.527 58.352 56.023 58.799 56.009 59.487C55.995 60.147 56.527 60.629 57.321 60.679C57.484 60.686 57.64 60.679 57.803 60.679H66.465V62.963H37.373C37.373 61.984 37.345 61.012 37.387 60.04C37.415 59.43 37.869 59.167 38.43 59.047C41.913 58.288 45.396 57.515 48.886 56.763C53.37 55.783 57.86 54.819 62.351 53.847ZM18.106 49.186C17.652 48.313 17.51 47.37 17.51 46.412C17.503 35.182 17.503 23.953 17.503 12.716C17.503 12.595 17.453 12.446 17.631 12.312C18.39 12.894 19.213 13.397 20.156 13.681C21 13.943 21.851 13.993 22.717 13.993H52.462V52.499H51.788C42.424 52.499 33.06 52.506 23.696 52.499C21.185 52.499 19.276 51.463 18.106 49.186ZM32.18 56.344C29.718 55.84 27.25 55.393 24.788 54.847H46.205C46.198 54.883 46.198 54.918 46.191 54.953C43.914 55.457 41.637 55.953 39.352 56.457C38.316 56.684 37.238 56.776 36.358 57.479C36.23 57.571 36.117 57.578 35.989 57.479C34.869 56.606 33.478 56.613 32.18 56.344Z" fill="#2E2E3E"/>
<path d="M43.79 5.844C46.135 5.844 48.481 5.843 50.826 5.845C51.053 5.845 51.284 5.841 51.507 5.877C52.103 5.973 52.439 6.341 52.469 6.938C52.499 7.53 52.218 7.945 51.63 8.093C51.369 8.158 51.091 8.176 50.821 8.176C46.107 8.181 41.394 8.181 36.68 8.176C36.41 8.176 36.132 8.157 35.871 8.091C35.283 7.942 35.003 7.523 35.036 6.933C35.069 6.339 35.407 5.968 36.004 5.877C36.25 5.839 36.503 5.845 36.753 5.845C39.099 5.843 41.445 5.844 43.79 5.844Z" fill="#2E2E3E"/>
<path d="M5.83 40.407C6.351 39.869 6.786 39.405 7.237 38.957C7.921 38.277 8.626 38.197 9.139 38.727C9.659 39.264 9.572 39.928 8.858 40.629C8.406 41.073 7.924 41.485 7.399 41.962C7.996 42.54 8.495 43.002 8.967 43.489C9.564 44.104 9.602 44.805 9.094 45.293C8.599 45.767 7.93 45.729 7.338 45.156C6.848 44.682 6.389 44.177 5.783 43.547C5.271 44.117 4.821 44.656 4.331 45.154C3.718 45.777 3.037 45.821 2.532 45.316C2.026 44.811 2.077 44.134 2.687 43.512C3.165 43.025 3.661 42.556 4.298 41.933C3.764 41.463 3.237 41.037 2.755 40.565C2.112 39.934 2.062 39.21 2.58 38.712C3.076 38.235 3.764 38.306 4.387 38.904C4.633 39.14 4.875 39.382 5.111 39.628C5.331 39.856 5.542 40.093 5.83 40.407Z" fill="#EE3E3C"/>
<path d="M66.493 15.172C67.265 15.172 67.966 15.162 68.666 15.175C69.466 15.189 70 15.663 70 16.335C70 17.004 69.463 17.484 68.666 17.499C67.965 17.513 67.264 17.502 66.492 17.502C66.492 18.249 66.504 18.948 66.489 19.646C66.472 20.477 66.039 20.973 65.352 20.984C64.671 20.995 64.204 20.496 64.16 19.684C64.14 19.321 64.156 18.956 64.156 18.592C64.156 18.253 64.156 17.915 64.156 17.501C63.43 17.501 62.732 17.51 62.034 17.499C61.176 17.485 60.67 17.025 60.691 16.299C60.71 15.602 61.2 15.186 62.038 15.173C62.717 15.163 63.396 15.171 64.16 15.171C64.16 14.394 64.133 13.652 64.169 12.912C64.197 12.328 64.443 11.857 65.088 11.727C65.645 11.614 66.06 11.815 66.35 12.297C66.499 12.545 66.487 12.821 66.49 13.091C66.498 13.751 66.493 14.409 66.493 15.172Z" fill="#EE3E3C"/>
<path d="M4.75597 16.33C5.75797 16.33 6.75997 16.324 7.76197 16.334C8.03297 16.337 8.31797 16.341 8.57097 16.423C9.07597 16.587 9.34597 16.967 9.34397 17.505C9.34197 18.043 9.07197 18.425 8.56397 18.581C8.28797 18.666 7.97997 18.669 7.68597 18.67C5.70497 18.677 3.72397 18.675 1.74297 18.672C1.51597 18.672 1.28797 18.657 1.06397 18.628C0.423971 18.546 0.100971 18.142 0.0499713 17.532C0.00197135 16.955 0.440971 16.484 1.06997 16.371C1.13697 16.359 1.20397 16.337 1.27197 16.337C2.43297 16.335 3.59497 16.335 4.75597 16.335C4.75597 16.334 4.75597 16.332 4.75597 16.33Z" fill="#EE3E3C"/>
<path d="M64.199 41.991C63.083 41.991 61.967 42 60.852 41.988C60.017 41.979 59.533 41.548 59.527 40.844C59.521 40.151 60.016 39.671 60.831 39.665C63.062 39.648 65.294 39.648 67.525 39.666C68.323 39.672 68.85 40.188 68.833 40.859C68.816 41.537 68.298 41.981 67.478 41.989C66.385 42 65.292 41.991 64.199 41.991Z" fill="#EE3E3C"/>
<path d="M25.666 8.17901C24.961 8.17901 24.256 8.19401 23.551 8.17501C22.685 8.15201 22.184 7.69501 22.197 6.97901C22.21 6.27801 22.685 5.85601 23.531 5.84801C24.964 5.83401 26.397 5.83301 27.829 5.84801C28.65 5.85701 29.162 6.31501 29.169 6.99201C29.176 7.65301 28.649 8.14501 27.848 8.17301C27.122 8.19901 26.393 8.17901 25.666 8.17901Z" fill="#EE3E3C"/>
<path d="M5.85898 12.836C5.85798 13.448 5.34998 13.963 4.73498 13.978C4.07098 13.993 3.55898 13.493 3.56098 12.831C3.56198 12.184 4.10398 11.654 4.74098 11.676C5.34198 11.698 5.86098 12.236 5.85898 12.836Z" fill="#EE3E3C"/>
<path d="M5.85797 22.148C5.87097 22.752 5.36797 23.29 4.75897 23.323C4.12297 23.358 3.56997 22.836 3.55997 22.191C3.54997 21.553 4.01597 21.055 4.64797 21.029C5.30197 21.002 5.84397 21.503 5.85797 22.148Z" fill="#EE3E3C"/>
<path d="M34.831 26.827C31.141 26.827 27.451 26.83 23.762 26.826C21.227 26.823 19.849 25.442 19.842 22.899C19.84 22.171 19.828 21.44 19.884 20.715C20.022 18.951 21.358 17.649 23.122 17.517C23.349 17.5 23.577 17.502 23.805 17.502C31.253 17.501 38.701 17.501 46.149 17.502C46.376 17.502 46.608 17.491 46.83 17.528C47.446 17.631 47.839 18.124 47.812 18.726C47.786 19.299 47.382 19.738 46.784 19.814C46.559 19.843 46.329 19.831 46.102 19.831C38.722 19.832 31.343 19.831 23.963 19.832C22.49 19.832 22.181 20.147 22.181 21.643C22.181 22.121 22.173 22.6 22.183 23.078C22.204 24.083 22.599 24.482 23.597 24.488C25.055 24.496 26.512 24.49 27.97 24.49C34.029 24.49 40.087 24.49 46.146 24.49C46.442 24.49 46.737 24.478 47.023 24.583C47.588 24.791 47.858 25.193 47.801 25.789C47.747 26.358 47.412 26.699 46.854 26.794C46.609 26.836 46.355 26.825 46.105 26.826C42.347 26.827 38.589 26.827 34.831 26.827Z" fill="#2E2E3E"/>
<path d="M35.011 29.167C33.089 29.16 31.507 30.763 31.514 32.7C31.528 34.608 33.089 36.155 34.997 36.162C36.934 36.169 38.509 34.573 38.494 32.643C38.48 30.742 36.905 29.174 35.011 29.167ZM35.046 33.806C34.4 33.827 33.854 33.317 33.854 32.678C33.847 32.068 34.351 31.543 34.961 31.522C35.599 31.501 36.153 32.033 36.16 32.664C36.167 33.267 35.663 33.792 35.046 33.806Z" fill="#EE3E3C"/>
<path d="M45.566 38.517C43.644 38.482 42.076 39.985 42.026 41.901C41.976 43.845 43.487 45.441 45.438 45.505C47.325 45.569 48.985 43.951 49.006 42.036C49.035 40.148 47.475 38.559 45.566 38.517ZM45.559 43.156C44.928 43.191 44.367 42.659 44.36 42.021C44.353 41.39 44.821 40.893 45.452 40.865C46.098 40.837 46.651 41.347 46.665 41.986C46.68 42.574 46.155 43.128 45.559 43.156Z" fill="#2E2E3E"/>
<path d="M45.517 29.167C43.602 29.153 42.013 30.756 42.02 32.693C42.034 34.608 43.574 36.148 45.489 36.162C47.419 36.169 49.029 34.566 49.008 32.65C48.993 30.756 47.411 29.181 45.517 29.167ZM45.545 33.813C44.885 33.827 44.36 33.331 44.36 32.671C44.36 32.047 44.842 31.543 45.467 31.522C46.105 31.501 46.666 32.033 46.666 32.664C46.673 33.26 46.148 33.792 45.545 33.813Z" fill="#2E2E3E"/>
<path d="M24.497 38.517C22.589 38.517 21.021 40.071 21.007 41.972C20.986 43.887 22.603 45.519 24.511 45.512C26.405 45.505 27.973 43.937 27.987 42.036C28.002 40.084 26.448 38.517 24.497 38.517ZM24.505 43.163C23.895 43.163 23.327 42.588 23.342 41.971C23.363 41.368 23.888 40.857 24.498 40.857C25.151 40.857 25.669 41.382 25.647 42.028C25.64 42.645 25.115 43.156 24.505 43.163Z" fill="#2E2E3E"/>
<path d="M38.49 42.193C38.426 43.996 36.803 45.53 34.981 45.509C33.165 45.488 31.584 43.982 31.524 42.216C31.498 41.466 31.86 40.965 32.492 40.876C33.179 40.778 33.668 41.161 33.831 41.923C34.01 42.761 34.413 43.177 35.027 43.162C35.63 43.147 36.017 42.736 36.176 41.944C36.332 41.166 36.798 40.787 37.494 40.873C38.133 40.951 38.516 41.459 38.49 42.193Z" fill="#EE3E3C"/>
<path d="M24.511 36.159C22.711 36.166 21.203 34.792 21.023 32.98C20.945 32.191 21.34 31.626 22.031 31.539C22.705 31.455 23.174 31.84 23.323 32.629C23.431 33.205 23.649 33.673 24.295 33.783C24.79 33.867 25.186 33.705 25.472 33.283C25.606 33.086 25.622 32.861 25.668 32.638C25.832 31.846 26.292 31.462 26.964 31.536C27.66 31.613 28.019 32.123 27.972 32.966C27.874 34.719 26.32 36.152 24.511 36.159Z" fill="#2E2E3E"/>
</svg>
