<svg width="70" height="70" viewBox="0 0 70 70" fill="none" xmlns="http://www.w3.org/2000/svg">
<path d="M9.95905 13.636C11.3701 13.636 12.5141 12.4921 12.5141 11.081C12.5141 9.66991 11.3701 8.526 9.95905 8.526C8.54797 8.526 7.40405 9.66991 7.40405 11.081C7.40405 12.4921 8.54797 13.636 9.95905 13.636Z" fill="#EE3E3C"/>
<path d="M17.628 13.636C19.0391 13.636 20.183 12.4921 20.183 11.081C20.183 9.66991 19.0391 8.526 17.628 8.526C16.2169 8.526 15.073 9.66991 15.073 11.081C15.073 12.4921 16.2169 13.636 17.628 13.636Z" fill="#EE3E3C"/>
<path d="M66.61 47.99C66.33 47.96 66.17 47.93 66.06 47.62C65.81 46.9 65.49 46.2 65.21 45.49C66.91 43.39 66.89 42.3 65.05 40.29C64.77 39.99 64.81 39.68 64.81 39.35V8.72C64.81 8.15 64.79 7.59 64.74 7.02C64.42 3.85 61.94 0.519999 57.73 0.539999C40.83 0.619999 23.93 0.609999 7.03 0.549999C4.36 0.539999 2.48 1.85 1.36 3.47C1.35 3.48 1.34 3.49 1.34 3.5C1.05 3.92 0.81 4.36 0.63 4.79C0.61 4.82 0.6 4.84 0.6 4.87C0.51 5.06 0.44 5.26 0.38 5.46C0.35 5.56 0.33 5.67 0.31 5.78C0.29 5.93 0.26 6.08 0.21 6.23V6.24C0.09 6.82 0.03 7.38 0 7.87V48.69C0 48.69 0 48.77 0 48.91C0 49.26 0.02 49.99 0.17 50.84C0.18 50.85 0.18 50.86 0.18 50.87C0.2 50.92 0.21 50.96 0.21 51.01C0.21 51.04 0.22 51.07 0.23 51.11C0.24 51.17 0.25 51.23 0.26 51.28C0.29 51.39 0.32 51.51 0.36 51.62C0.37 51.67 0.38 51.73 0.4 51.78C0.61 52.42 0.9 53.05 1.29 53.63C1.3 53.66 1.32 53.68 1.34 53.71C2.48 55.42 4.39 56.74 7.04 56.64C9.42 56.55 11.81 56.62 14.2 56.62C15.23 56.62 15.87 56.1 15.88 55.26C15.89 54.41 15.26 53.89 14.22 53.88C11.74 53.88 9.26 53.87 6.79 53.89C5.42 53.9 4.4 53.3 3.64 52.19C2.98 51.22 2.74 50.13 2.74 48.97V21.53H62V38.11C60.75 37.98 59.81 38.49 59.06 39.32C58.35 39.03 57.71 38.72 57.05 38.51C56.63 38.38 56.51 38.19 56.48 37.75C56.37 35.97 55.19 34.82 53.42 34.75C52.45 34.72 51.46 34.7 50.49 34.8C49.19 34.95 48.38 35.75 47.97 36.98C47.82 37.41 47.86 37.87 47.82 38.32C47.18 38.58 46.53 38.8 45.94 39.12C45.53 39.33 45.29 39.32 44.94 38.99C43.68 37.8 41.91 37.83 40.66 39.04C40.05 39.62 39.46 40.22 38.88 40.82C38.26 41.45 37.98 42.21 38.01 43.1C38.04 44.11 38.56 44.85 39.23 45.49C38.96 46.19 38.67 46.85 38.42 47.53C38.31 47.86 38.16 47.97 37.8 47.99C35.81 48.09 34.67 49.32 34.66 51.34C34.65 52.17 34.65 53 34.65 53.88H34.05C31.62 53.88 29.19 53.88 26.76 53.89C25.91 53.89 25.35 54.42 25.33 55.19C25.31 56 25.87 56.58 26.73 56.62C26.96 56.63 27.19 56.62 27.42 56.62H38.26C38.54 57.48 38.89 58.29 39.27 59.08C39.2 59.17 39.14 59.24 39.08 59.31C37.65 60.82 37.66 62.53 39.11 64C39.64 64.53 40.17 65.06 40.71 65.58C41.36 66.22 42.14 66.5 43.06 66.46C44.06 66.42 44.79 65.87 45.4 65.24C46.09 65.53 46.71 65.82 47.36 66.04C47.76 66.17 47.89 66.37 47.91 66.8C48.01 68.66 49.27 69.84 51.14 69.85C51.91 69.85 52.68 69.86 53.46 69.85C55.11 69.82 56.4 68.61 56.54 66.98C56.56 66.74 56.54 66.49 56.54 66.24C57.44 65.96 58.24 65.61 59.04 65.23C59.12 65.3 59.19 65.36 59.25 65.42C60.77 66.85 62.48 66.85 63.95 65.39C64.48 64.86 65.01 64.33 65.53 63.8C66.15 63.16 66.42 62.4 66.41 61.51C66.38 60.5 65.86 59.76 65.16 59.09C65.57 58.29 65.89 57.47 66.18 56.64C66.33 56.63 66.44 56.62 66.55 56.62C68.52 56.57 69.77 55.3 69.78 53.35V51.37C69.78 49.3 68.68 48.13 66.61 47.99ZM61.98 18.7H2.74C2.74 14.99 2.73 11.36 2.76 7.73C2.77 6.67 3.12 5.68 3.77 4.82C4.51 3.83 5.47 3.31 6.74 3.31C23.84 3.32 40.95 3.31 58.05 3.32C60.23 3.32 61.96 5.1 62.01 7.58C62.08 11.24 62.04 14.9 62.04 18.55C62.04 18.59 62.01 18.63 61.98 18.7ZM65.62 53.88C64.31 53.89 64 54.11 63.67 55.37C63.39 56.42 62.96 57.42 62.41 58.36C61.87 59.28 61.93 59.74 62.65 60.48C63.8 61.65 63.8 61.65 62.63 62.81C61.58 63.86 61.58 63.86 60.54 62.83C59.66 61.95 59.27 61.89 58.21 62.51C57.23 63.09 56.18 63.5 55.08 63.8C54.1 64.06 53.82 64.44 53.8 65.43C53.78 67.11 53.78 67.12 52.1 67.11C50.46 67.1 50.67 67.31 50.66 65.66C50.65 64.41 50.38 64.05 49.19 63.74C48.08 63.45 47.05 63 46.07 62.42C45.24 61.94 44.75 62 44.06 62.67C44.04 62.68 44.03 62.7 44.01 62.71C42.85 63.85 42.85 63.85 41.68 62.68C40.65 61.64 40.65 61.64 41.69 60.6C42.54 59.75 42.59 59.31 41.99 58.26C41.43 57.3 41 56.28 40.73 55.19C40.48 54.19 40.08 53.89 39.05 53.88C37.42 53.87 37.42 53.87 37.42 52.27C37.42 50.75 37.42 50.75 38.91 50.74C40.06 50.73 40.46 50.43 40.74 49.34C41.01 48.26 41.45 47.24 42.01 46.27C42.56 45.31 42.5 44.87 41.75 44.1C40.63 42.94 40.62 42.94 41.8 41.78C42.12 41.46 42.37 41.07 42.78 40.9C43.06 40.91 43.18 41.09 43.32 41.23C44.54 42.43 44.65 43.06 46.84 41.74C47.59 41.28 48.45 41.02 49.31 40.8C50.26 40.55 50.58 40.14 50.59 39.16C50.61 37.51 50.61 37.51 52.24 37.51C53.72 37.51 53.72 37.51 53.74 39.02C53.75 40.1 54.06 40.54 55.06 40.78C56.22 41.06 57.29 41.51 58.32 42.12C59.2 42.64 59.7 42.57 60.44 41.85C61.6 40.73 61.6 40.73 62.77 41.89C63.8 42.93 63.8 42.93 62.76 43.98C61.9 44.84 61.84 45.24 62.46 46.31C63.04 47.3 63.45 48.35 63.75 49.44C64 50.4 64.42 50.72 65.38 50.74C67.04 50.78 67.04 50.78 67.04 52.45C67.03 54.02 67.22 53.88 65.62 53.88Z" fill="#030303"/>
<path d="M30.736 35.194C29.622 33.942 28.538 32.725 27.456 31.505C27.021 31.015 26.905 30.462 27.218 29.874C27.516 29.312 28.014 29.096 28.642 29.172C29.029 29.219 29.303 29.449 29.549 29.724C30.773 31.096 32.004 32.462 33.215 33.845C33.979 34.717 33.979 35.664 33.213 36.541C32.004 37.926 30.779 39.297 29.549 40.663C28.939 41.341 28.095 41.418 27.502 40.884C26.9 40.343 26.892 39.524 27.506 38.826C28.565 37.622 29.639 36.426 30.736 35.194Z" fill="#EE3E3C"/>
<path d="M10.811 35.197C11.944 36.468 13.02 37.666 14.087 38.873C14.538 39.383 14.647 39.965 14.296 40.565C13.958 41.144 13.42 41.318 12.775 41.183C12.447 41.115 12.21 40.907 11.997 40.667C10.775 39.294 9.54501 37.928 8.33601 36.544C7.56401 35.66 7.56201 34.725 8.32701 33.852C9.53801 32.47 10.763 31.099 11.993 29.733C12.611 29.046 13.432 28.961 14.033 29.493C14.635 30.026 14.652 30.861 14.048 31.549C12.988 32.759 11.915 33.955 10.811 35.197Z" fill="#EE3E3C"/>
<path d="M23.505 29.64C23.164 31.089 22.81 32.611 22.449 34.131C21.914 36.378 21.374 38.623 20.836 40.869C20.735 41.291 20.622 41.707 20.244 41.983C19.753 42.341 19.227 42.386 18.715 42.073C18.185 41.749 17.934 41.251 18.078 40.623C18.499 38.791 18.931 36.962 19.364 35.134C19.818 33.217 20.274 31.301 20.739 29.386C20.985 28.376 21.737 27.902 22.58 28.203C23.221 28.431 23.487 28.911 23.505 29.64Z" fill="#EE3E3C"/>
<path d="M20.615 53.884C21.392 53.881 22 54.473 22.003 55.237C22.006 55.998 21.393 56.616 20.631 56.62C19.884 56.624 19.237 55.991 19.232 55.252C19.227 54.5 19.847 53.887 20.615 53.884Z" fill="#EE3E3C"/>
<path d="M48.91 14.914C47.195 14.914 45.479 14.946 43.765 14.906C41.851 14.861 40.325 13.418 40.074 11.496C39.84 9.705 41.041 7.921 42.844 7.413C43.185 7.317 43.547 7.255 43.9 7.253C47.274 7.241 50.648 7.223 54.022 7.255C55.982 7.274 57.569 8.703 57.809 10.558C58.052 12.443 56.926 14.193 55.113 14.746C54.677 14.879 54.23 14.923 53.774 14.922C52.153 14.917 50.532 14.92 48.911 14.92C48.91 14.918 48.91 14.916 48.91 14.914ZM48.93 12.638C50.515 12.638 52.099 12.641 53.684 12.635C53.927 12.634 54.176 12.616 54.411 12.558C55.061 12.397 55.511 11.835 55.551 11.176C55.591 10.519 55.2 9.9 54.587 9.658C54.301 9.545 53.999 9.54 53.696 9.54C50.527 9.541 47.358 9.54 44.189 9.542C44.001 9.542 43.81 9.548 43.626 9.58C43.013 9.686 42.606 10.047 42.422 10.637C42.1 11.673 42.838 12.62 44.008 12.634C45.648 12.653 47.289 12.638 48.93 12.638Z" fill="#030303"/>
<path d="M0.85 47.57L0 48.69C0 48.69 0 48.77 0 48.91C0 49.26 0.02 49.99 0.17 50.84C0.18 50.85 0.18 50.86 0.18 50.87C0.2 50.92 0.21 50.96 0.21 51.01C0.21 51.04 0.22 51.07 0.23 51.11C0.27 51.28 0.31 51.45 0.36 51.62C0.37 51.67 0.38 51.73 0.4 51.78C0.59 52.42 0.87 53.07 1.29 53.63C1.3 53.66 1.32 53.68 1.34 53.71L2.51 53.58L0.85 47.57Z" fill="#030303"/>
<path d="M52.231 57.58C55.1405 57.58 57.499 55.2214 57.499 52.312C57.499 49.4026 55.1405 47.044 52.231 47.044C49.3216 47.044 46.963 49.4026 46.963 52.312C46.963 55.2214 49.3216 57.58 52.231 57.58Z" fill="#EE3E3C"/>
</svg>
