<svg width="67" height="70" viewBox="0 0 67 70" fill="none" xmlns="http://www.w3.org/2000/svg">
<path d="M66.9525 10.8848L66.9405 7.66269C66.9405 7.45918 66.9317 7.26072 66.9147 7.07485C66.9115 7.02697 66.9059 6.97845 66.9008 6.93876C66.7742 5.70323 66.325 4.49983 65.6023 3.46087C65.5639 3.40543 65.5248 3.34872 65.4832 3.29139C65.1669 2.85917 64.8027 2.45783 64.4008 2.09933C63.6353 1.40943 62.75 0.878922 61.7691 0.524203C61.3614 0.376771 60.9424 0.267142 60.5379 0.161293L60.3754 0.12034C59.9161 0.0415834 59.4505 0.00189017 58.9905 0.00189017H55.8869C55.5605 0.0107109 55.2549 0.139871 55.0269 0.36543C55.0136 0.378661 54.9998 0.391892 54.9872 0.405123L54.8586 0.408274V0.574607C54.6312 0.940667 54.5947 1.3313 54.7509 1.73642C54.7591 1.75784 54.766 1.77738 54.7748 1.79628L54.7767 1.98277H54.8738C55.0319 2.23038 55.2682 2.38979 55.5958 2.47043C55.6935 2.49185 55.7911 2.50572 55.8566 2.50698L55.919 2.51391C56.0482 2.52147 56.1855 2.52084 56.3185 2.51958H56.3739C56.5069 2.51706 56.6404 2.51643 56.7746 2.5158L56.9441 2.51454C57.2906 2.51265 57.6347 2.51328 57.9787 2.51391L58.7889 2.5158C62.0482 2.53722 64.3529 4.7739 64.3938 7.95629C64.4052 8.73504 64.4033 9.52827 64.4014 10.2944L64.4001 10.8835C64.3983 11.1273 64.3983 11.3724 64.3983 11.6163L64.3995 17.6307C64.4014 22.1413 64.4027 26.6518 64.3964 31.1624C64.3901 34.5054 62.0948 36.761 58.6831 36.7749L58.087 36.7799C57.4003 36.7868 56.6915 36.7931 55.9978 36.7698C55.3677 36.7434 54.8278 36.9198 54.3181 37.3142C53.0094 38.3229 51.6296 39.353 50.413 40.2635L49.0584 41.2778C48.9683 41.344 48.8788 41.4083 48.7761 41.4782V40.9968C48.7768 40.111 48.7768 39.2869 48.7742 38.464C48.7723 37.1882 48.3559 36.7774 47.0599 36.7755C45.9409 36.7761 44.8181 36.7767 43.6979 36.7793C40.8854 36.7843 37.9758 36.79 35.0983 36.7528C34.5136 36.7446 33.9069 36.5972 33.3115 36.4523C33.0677 36.3918 32.8289 36.3338 32.5907 36.284C32.3167 36.2255 32.1787 36.1064 32.1825 35.6168C32.1957 33.3581 32.1951 31.0597 32.1944 28.8375C32.1944 27.5673 32.1938 26.2977 32.1957 25.0282C32.1988 22.881 31.3602 21.0992 29.7019 19.7332C29.5507 19.6091 29.4165 19.3583 29.4153 19.197L29.4128 18.6615C29.3995 16.2541 29.385 13.5259 29.3957 10.8848C29.3995 9.68705 29.4083 8.6336 29.4216 7.66395C29.4543 5.19667 31.3098 3.07906 33.8338 2.62795C34.2402 2.55486 34.6976 2.51958 35.2344 2.51958C37.003 2.5158 38.7728 2.51391 40.542 2.51391H49.3646C49.7061 2.51391 50.0306 2.38097 50.2845 2.13083C50.5384 1.9015 50.6625 1.58458 50.643 1.21537C50.6316 0.833558 50.4464 0.48325 50.1351 0.255171C49.9127 0.0882073 49.6462 0 49.364 0H34.949C34.4998 0 34.0531 0.036543 33.6171 0.108369C32.6008 0.320066 31.679 0.645803 30.8776 1.0755C29.0158 2.06468 27.7809 3.58247 27.2088 5.58037C27.1956 5.61565 27.1849 5.64967 27.1792 5.67488C26.953 6.48953 26.8377 7.38421 26.8377 8.33243L26.8365 17.9729C26.8365 18.1184 26.827 18.2633 26.8163 18.4341C26.7508 18.4259 26.684 18.4177 26.609 18.4082C26.3299 18.3736 26.0659 18.3414 25.7969 18.3414L21.0847 18.3351C16.28 18.3288 11.312 18.3219 6.42531 18.3484C3.35381 18.3673 0.719566 20.5283 0.1626 23.4877C0.00571763 24.3269 0.00886787 25.1989 0.0113881 26.0457C0.0120181 26.3103 0.0126482 26.5749 0.00949791 26.8377C-0.0106637 28.0001 0.770601 28.1885 1.2381 28.1973H1.27653C2.0767 28.1973 2.53159 27.7128 2.55743 26.8333L2.56121 26.689C2.57507 26.1957 2.58956 25.6859 2.55491 25.1813C2.47552 24.0302 2.85607 22.9559 3.62725 22.1558C4.44506 21.3077 5.65224 20.8213 6.93881 20.8213H7.00496C11.2376 20.8736 15.5378 20.8629 19.6961 20.8535C20.6021 20.8516 21.5081 20.8503 22.4141 20.8497C23.3208 20.849 24.2268 20.8478 25.1322 20.8459C27.9914 20.8472 29.6307 22.4456 29.6307 25.2304C29.6326 31.1145 29.6326 36.9992 29.6326 42.8813V43.5555C29.4323 43.5542 29.2351 43.5504 29.0398 43.5466L28.9994 43.546C28.4185 43.5353 27.8704 43.5278 27.314 43.5668C25.3363 43.7061 23.8922 44.6688 23.249 46.2786C22.8281 47.3345 22.1111 47.9331 21.1446 48.6633L20.9827 48.7855C20.1623 49.4087 19.3414 50.0324 18.5166 50.6524C18.4555 50.699 18.3913 50.7418 18.3144 50.791V49.1604C18.3125 47.6924 17.9483 47.3333 16.4595 47.3314C15.4766 47.3314 14.4938 47.3326 13.5109 47.3339L13.0346 47.3345C11.0064 47.3358 8.90835 47.3389 6.84556 47.3276C4.21194 47.3106 2.57003 45.6844 2.56184 43.0855C2.55806 41.9249 2.55932 40.7637 2.56058 39.6025L2.56247 36.6564C2.56373 35.625 2.56562 34.4569 2.55554 33.3096C2.55239 32.8188 2.40495 32.43 2.12962 32.1849C1.88075 31.9632 1.53296 31.8655 1.12469 31.902C0.360437 31.9726 0.00382756 32.4313 0.00382756 33.3455C-0.00184291 36.8946 -0.00121284 40.1589 0.00571773 43.3274C0.00697783 43.6556 0.0195788 44.0879 0.102116 44.5188C0.725237 47.7302 3.3809 49.8201 6.86698 49.8428C8.6223 49.8554 10.4066 49.8516 12.1311 49.8497L12.5362 49.8491C13.3912 49.8472 14.2468 49.8459 15.1018 49.8459H15.7551L15.7557 50.6681C15.757 51.5193 15.7589 52.3233 15.7507 53.1354C15.7457 53.5607 15.8169 54.1624 16.4853 54.4781C17.1419 54.7887 17.6717 54.4768 18.0132 54.2153C19.032 53.4328 20.0867 52.6364 21.0173 51.9339L21.2933 51.7254C21.6385 51.4645 21.9857 51.2062 22.3681 50.922L22.6573 50.7053V51.1167C22.6573 51.9956 22.6561 52.8739 22.6548 53.7535L22.6542 54.3344C22.6504 56.6851 22.646 59.1165 22.6655 61.5069C22.6882 64.499 24.8316 66.599 27.8786 66.6128C28.6693 66.6172 29.4594 66.6185 30.2501 66.616L33.8263 66.6147L33.8275 67.1207C33.8288 67.5938 33.83 68.0399 33.8219 68.4879C33.8162 68.9232 33.8912 69.5413 34.6094 69.8765C34.7846 69.9584 34.9616 70 35.1349 70C35.5306 70 35.8588 69.7889 36.1285 69.5829C36.434 69.3498 36.7453 69.1211 37.0628 68.8861C37.7011 68.4154 38.3601 67.929 38.9725 67.4054C39.6731 66.8069 40.3656 66.5618 41.2993 66.5857C41.3384 66.5864 41.3762 66.587 41.4146 66.587C43.599 66.587 45.5269 65.0761 46.0266 62.9541C46.2187 62.1433 46.2225 61.2876 46.2257 60.4598L46.2263 60.33C46.2276 60.1995 46.2282 60.0691 46.2301 59.9393C46.2414 59.1461 45.7777 58.6654 44.9901 58.6528C44.9801 58.6528 44.9712 58.6528 44.9618 58.6528C44.4017 58.6528 43.7401 58.8827 43.6935 59.9532C43.6815 60.2266 43.6815 60.5039 43.6815 60.7716C43.6815 61.1478 43.6815 61.5731 43.6412 61.9731C43.5215 63.1419 42.5449 64.034 41.3195 64.0926L41.218 64.0977C40.9188 64.1115 40.6107 64.1248 40.3215 64.0945C39.5736 64.0095 38.9152 64.2281 38.2473 64.7838C37.7937 65.1625 37.3117 65.5159 36.8007 65.8908L36.7529 65.9261C36.6306 66.0156 36.5071 66.1057 36.3818 66.1983V66.1309C36.3818 65.9998 36.3818 65.8858 36.3811 65.773C36.3748 64.494 35.9729 64.1033 34.6592 64.1015C33.9227 64.1002 33.1849 64.1002 32.4458 64.1015H30.2306C29.4921 64.1027 28.755 64.1027 28.0178 64.1015C26.1888 64.0977 25.2204 63.1494 25.2172 61.3595C25.2097 57.1923 25.2097 52.9672 25.2172 48.8C25.2204 47.0037 26.185 46.053 28.0071 46.0499C31.943 46.0398 36.1518 46.0398 40.8753 46.0499C42.7012 46.053 43.6727 47 43.6847 48.7881C43.6903 49.5403 43.6891 50.2939 43.6878 51.0468V51.4935C43.6872 52.0385 43.6866 52.5847 43.6885 53.1323C43.6948 54.1781 44.0936 54.6708 44.9435 54.6841C44.9492 54.6841 44.9542 54.6841 44.9586 54.6841C45.3442 54.6841 45.6353 54.5852 45.847 54.381C46.1161 54.1221 46.2421 53.7151 46.2446 53.1014C46.2502 51.7039 46.2502 50.2876 46.2446 48.8901C46.2313 45.5464 44.1906 43.5441 40.7864 43.534C38.9297 43.529 37.0704 43.529 35.213 43.5309L32.2209 43.5322V38.9403C35.0164 39.3946 37.858 39.3455 40.6125 39.2957L40.6422 39.2951C42.468 39.2642 44.3551 39.2314 46.2143 39.3467L46.2156 40.404C46.2175 41.4984 46.2194 42.6299 46.2087 43.7388C46.2024 44.224 46.2811 44.8219 46.9483 45.1438C47.5778 45.4475 48.0793 45.1766 48.5266 44.8376C49.0546 44.4382 49.6015 44.0425 50.1301 43.6601L50.2076 43.604C51.3738 42.7603 52.5804 41.8877 53.6798 40.9256C55.2833 39.5225 56.8691 39.0033 58.666 39.285C58.8154 39.3089 58.9559 39.2976 59.1033 39.2875L59.1991 39.2806C63.5868 39.0657 66.9128 35.7762 66.9355 31.6286C66.9726 25.5593 66.9777 18.9677 66.9525 10.8848Z" fill="#2E2E3E"/>
<path d="M13.0799 34.92C13.0554 35.2224 12.9716 35.2955 12.6408 35.2854C11.9414 35.2659 11.1142 35.2527 10.2825 35.2955C9.87296 35.3169 9.5258 35.5475 9.37711 35.8959C9.24417 36.2065 9.30276 36.5449 9.53336 36.8019C9.75892 37.0527 10.1899 37.1894 10.5181 37.2134C11.0575 37.2493 11.5899 37.2436 12.1531 37.2354C12.3289 37.2335 12.5072 37.231 12.6874 37.2304L12.6294 37.5668C12.5041 38.2914 12.3875 38.9681 12.2747 39.6466C12.1525 40.3737 12.4316 40.8759 13.0226 40.9886C13.0969 41.0031 13.17 41.0101 13.2406 41.0101C13.4309 41.0101 13.6054 40.959 13.7528 40.8582C14.0011 40.6894 14.1687 40.3857 14.238 39.9793L14.7067 37.26H16.4828C16.4847 37.2669 16.486 37.2726 16.4866 37.2745L16.3052 38.3739C16.2277 38.8383 16.1508 39.3033 16.0752 39.7676C15.9738 40.3851 16.2913 40.8878 16.8464 40.9912C17.4298 41.097 17.903 40.7555 18.0202 40.1412C18.1021 39.7134 18.1733 39.2837 18.2438 38.854C18.2955 38.5434 18.3465 38.2341 18.4013 37.9247C18.5242 37.2298 18.5242 37.2298 19.2557 37.2298H21.3178C21.9655 37.2298 22.3744 37.1226 22.6057 36.8927C22.7657 36.7333 22.8413 36.5191 22.8382 36.2381C22.8281 35.4429 22.2125 35.2791 21.2914 35.2772H18.8493L19.1669 33.4734L19.8322 33.4753C20.4767 33.4778 21.0847 33.4803 21.6997 33.4658C21.9781 33.4589 22.3404 33.4085 22.4809 33.21C22.6504 32.9763 22.8293 32.5768 22.7758 32.2208C22.7134 31.7937 22.3303 31.5272 21.7765 31.5253C21.217 31.5215 20.6569 31.5221 20.0974 31.5227L19.5096 31.5234C19.5058 31.4843 19.5033 31.4553 19.5052 31.4408L19.6709 30.4321C19.7497 29.9552 19.8284 29.4789 19.9059 29.0025C20.0105 28.3668 19.7156 27.8848 19.1549 27.7739C18.872 27.7179 18.6156 27.7613 18.4102 27.8974C18.1815 28.0493 18.0258 28.312 17.9603 28.656C17.8872 29.0397 17.8223 29.4247 17.7574 29.8096C17.6793 30.274 17.6012 30.7377 17.5092 31.1983C17.4846 31.318 17.3573 31.4849 17.3101 31.5007C16.8835 31.5316 16.457 31.5278 16.0053 31.5234C15.8963 31.5221 15.7866 31.5215 15.6757 31.5209L15.711 31.2858C15.735 31.1264 15.757 30.9796 15.781 30.8335C15.8131 30.6312 15.8484 30.429 15.8824 30.2267C15.9574 29.7888 16.0349 29.3358 16.0891 28.8872C16.1634 28.2799 15.8414 27.8382 15.2687 27.7613C14.7061 27.692 14.2978 27.9913 14.146 28.5943C14.1233 28.6837 14.1094 28.7738 14.0956 28.8646L13.6407 31.5221L12.3283 31.5202C11.6787 31.5171 11.0083 31.5152 10.348 31.5297C9.74884 31.5429 9.3286 31.9417 9.32671 32.4987C9.32293 33.0538 9.7186 33.4343 10.3348 33.4683C10.5459 33.4797 10.7563 33.4778 10.9667 33.4759L13.3099 33.4746C13.2859 33.6088 13.262 33.738 13.2387 33.8634C13.1725 34.2294 13.1083 34.5747 13.0799 34.92ZM15.1005 34.8916C15.1685 34.4588 15.2328 34.0493 15.3172 33.6422V33.6416C15.3267 33.5956 15.4319 33.4967 15.4773 33.4898C15.9057 33.4709 16.336 33.474 16.7897 33.4765L17.1299 33.4778L16.8394 35.2363H15.0451L15.1005 34.8916Z" fill="#EE3E3C"/>
<path d="M38.5371 51.726C37.3022 50.7406 35.9867 50.6366 34.6258 51.4191L34.6245 51.4198C34.5275 51.4733 34.3221 51.4645 34.2314 51.4034C33.7223 51.0468 33.0998 50.8653 32.4609 50.8653C31.9323 50.8653 31.3924 50.9888 30.8952 51.2396C29.8336 51.7732 29.1979 52.7744 29.1941 53.916C29.1815 55.6279 29.6837 56.8288 30.773 57.6964C31.7698 58.4883 32.8919 59.1574 33.9775 59.8051C34.2326 59.9551 34.7222 59.9261 34.9736 59.7862C36.0755 59.1694 36.9513 58.6187 37.7294 58.0542C38.597 57.4242 39.1937 56.6234 39.5018 55.6764C40.002 54.1416 39.6227 52.591 38.5371 51.726ZM37.0269 56.2145C36.4164 56.7166 35.7536 57.1595 35.1122 57.588L34.673 57.8828C34.6207 57.9181 34.5338 57.9358 34.4506 57.9358C34.3763 57.9358 34.3051 57.9219 34.2635 57.8929C34.1003 57.7802 33.9359 57.6693 33.7727 57.5584L33.6542 57.479C33.0028 57.0398 32.3286 56.5856 31.7401 56.057C31.0962 55.4805 30.8839 54.6645 31.1429 53.7604C31.3092 53.177 31.6866 52.8342 32.2643 52.741C32.3425 52.7278 32.4256 52.7202 32.5094 52.7202C32.9398 52.7202 33.2926 52.925 33.5875 53.3471C33.8363 53.7031 34.1457 53.9022 34.4588 53.9079C34.7524 53.9066 35.0252 53.7522 35.2464 53.4605C35.7605 52.7813 36.1656 52.6093 36.8026 52.8053C37.4509 53.0069 37.8403 53.5922 37.8447 54.3703C37.8554 55.127 37.5725 55.7659 37.0269 56.2145Z" fill="#EE3E3C"/>
<path d="M48.3628 10.1224C47.6275 10.1942 47.0844 10.6076 46.8343 11.2867C46.7366 11.5533 46.7177 11.8437 46.6995 12.1241L46.6938 12.2123C46.6825 12.3805 46.6623 12.5481 46.6346 12.7113C46.5117 13.4321 46.2257 14.0672 45.784 14.5983C45.2428 15.2529 44.6701 15.8893 44.1156 16.5042C43.8964 16.748 43.679 16.9893 43.466 17.2288C43.3659 17.2017 43.2726 17.1727 43.1844 17.1456C42.9532 17.0744 42.7547 17.0139 42.5443 17.0089C41.0945 16.9868 39.6693 16.9931 38.4647 17.0032C37.7156 17.0095 37.3955 17.3327 37.3936 18.0837C37.3892 21.1956 37.3892 24.3055 37.3936 27.4173C37.3949 28.2087 37.7193 28.5174 38.5504 28.5193L39.3675 28.5237C40.3296 28.5294 41.3257 28.5357 42.3042 28.508C42.6079 28.4991 42.899 28.4172 43.1812 28.3372C43.2909 28.3063 43.3986 28.2755 43.5038 28.2509C43.7445 28.3114 43.9921 28.387 44.2322 28.4601C44.8011 28.6333 45.3889 28.8129 45.9843 28.8305C47.4492 28.8746 48.9815 28.8961 50.6663 28.8961C51.7846 28.8961 52.9704 28.8866 54.2475 28.8671C55.5076 28.8482 56.3903 27.9157 56.3953 26.6008C56.4016 24.7068 56.401 22.8123 56.4004 20.9177L56.3997 19.2934C56.3985 17.7076 55.5088 16.8337 53.8959 16.8318C53.0838 16.8306 52.271 16.8312 51.4425 16.8318H50.35L50.3853 16.738C50.4464 16.576 50.4999 16.4336 50.5503 16.29C50.9788 15.0677 51.0519 13.8605 50.7671 12.7018C50.6241 12.1222 50.3916 11.5488 50.0759 10.9969C49.7136 10.3599 49.1018 10.0506 48.3628 10.1224ZM41.7296 26.6291H39.3045V18.8965H41.7296V26.6291ZM52.0732 18.6817C52.6705 18.6823 53.2677 18.6823 53.8657 18.6842C54.4749 18.6867 54.5108 18.7201 54.5127 19.2853C54.514 21.6687 54.514 24.0516 54.5115 26.4351C54.5115 26.97 54.4447 27.038 53.9142 27.038C51.4501 27.0437 48.9853 27.0437 46.5218 27.038C45.5106 27.0349 44.6436 26.7362 43.9455 26.1503C43.7974 26.0262 43.6752 25.7981 43.6727 25.6412C43.6487 23.8802 43.6481 22.0146 43.6714 20.0955C43.674 19.9203 43.7722 19.6916 43.9165 19.5272C44.9089 18.3931 45.8136 17.3863 46.6837 16.45C47.7529 15.297 48.359 14.0861 48.5354 12.7491C48.5581 12.5853 48.5732 12.412 48.5827 12.218C48.5827 12.2173 48.5827 12.2167 48.5827 12.2161C48.6753 12.4057 48.7515 12.5903 48.8145 12.773C49.1144 13.6299 49.1315 14.4679 48.8656 15.3342C48.7289 15.779 48.5398 16.2201 48.3571 16.6466C48.2771 16.8331 48.1971 17.0196 48.1209 17.2073C47.9463 17.6377 47.9489 18.0037 48.1297 18.2665C48.3105 18.5305 48.6589 18.6722 49.1365 18.6747C50.1143 18.6804 51.0934 18.681 52.0732 18.6817Z" fill="#EE3E3C"/>
</svg>
