<svg width="71" height="70" viewBox="0 0 71 70" fill="none" xmlns="http://www.w3.org/2000/svg">
<path d="M68.3855 53.417C66.9853 53.4117 65.5851 53.4144 64.1856 53.4144L61.8768 53.415L61.8775 49.1067C61.8788 44.807 61.8808 40.5066 61.8636 36.2076C61.8616 35.7351 61.9984 35.4166 62.3506 35.0697C64.6164 32.8376 66.6556 30.8215 68.6637 28.7559C70.4538 26.9163 70.4472 24.0617 68.6492 22.2585C66.8783 20.4823 64.1076 20.4558 62.2026 22.195C62.1028 22.2869 61.9997 22.3754 61.8768 22.4825L61.8748 19.7554C61.8728 17.6627 61.8702 15.498 61.8874 13.3696C61.8927 12.695 61.6812 12.1835 61.2041 11.7091C57.2196 7.74768 53.6276 4.15566 50.2252 0.728182C49.725 0.224666 49.1752 0 48.4431 0C48.4411 0 48.4391 0 48.4378 0C39.5093 0.0112333 30.5802 0.0105725 21.6537 0.0112333H13.3113C10.117 0.0112333 8.13206 2.00283 8.1314 5.20763L8.13074 38.6069H10.7838L10.7844 5.17723C10.7844 3.48563 11.6058 2.66361 13.2948 2.66295H47.6125L47.6105 4.69023C47.6085 6.26025 47.6065 7.79856 47.6145 9.33686C47.6297 12.1782 49.7039 14.2531 52.5459 14.2703C53.3269 14.2749 54.1067 14.2762 54.8871 14.2762C55.9027 14.2762 56.9203 14.2742 57.9372 14.2742C58.3258 14.2742 58.6932 14.2696 59.118 14.294L59.2238 14.3L59.2224 17.3066C59.2205 19.6609 59.2185 22.0959 59.235 24.4912C59.239 24.9796 59.1081 25.3014 58.7691 25.6384C52.0298 32.3473 46.5196 37.8602 41.4302 42.9872C41.0404 43.3791 40.7258 43.9599 40.5884 44.5414C40.2699 45.8834 40.0049 47.2598 39.7485 48.592L39.5424 49.6578C39.432 50.2208 39.5509 50.7104 39.8767 51.0369C40.1979 51.3573 40.6756 51.4763 41.228 51.3692L42.0553 51.2093C43.4885 50.9325 44.97 50.6463 46.4165 50.306C46.9689 50.1759 47.5266 49.8739 47.9085 49.4966C50.6792 46.7616 53.4783 43.9619 56.1835 41.254L58.855 38.5824C58.9528 38.4846 59.0566 38.3915 59.1669 38.2924V53.4157H54.0386C48.2125 53.415 42.3877 53.415 36.5622 53.417C35.2935 53.417 34.8429 53.869 34.8396 55.1423C34.8382 55.8249 34.8382 56.5062 34.8389 57.2132V58.0801H29.0921V60.7187H34.8389L34.8382 61.5724C34.8376 62.3118 34.8363 63.0261 34.8402 63.7397C34.8468 64.8717 35.3299 65.354 36.4552 65.354C41.7778 65.3554 47.0997 65.356 52.4217 65.356C57.7443 65.356 63.0662 65.3554 68.3888 65.354C69.5181 65.354 70.0011 64.8703 70.0031 63.7364C70.0084 60.8343 70.0084 57.9321 70.0031 55.0293C70.0018 53.902 69.5174 53.4203 68.3855 53.417ZM42.5179 48.3911L42.7789 47.0332L43.772 48.1499L42.5179 48.3911ZM57.1701 11.5762C56.7531 11.5782 56.3368 11.5829 55.9199 11.5875C54.6241 11.602 53.2833 11.6159 51.973 11.5472C51.108 11.5016 50.3243 10.6564 50.2953 9.73927C50.2543 8.47189 50.2629 7.17742 50.2715 5.92524C50.2741 5.5248 50.2768 5.12437 50.2781 4.72261L57.1701 11.5762ZM65.7358 23.5979C66.5552 23.7485 67.093 24.2567 67.2893 25.0674C67.4875 25.8809 67.2258 26.5522 66.4428 27.2262L63.6913 24.4727C64.2887 23.7406 64.9594 23.4551 65.7358 23.5979ZM64.2351 29.1887L46.5837 46.8383L44.037 44.285L61.6898 26.6394L64.2351 29.1887ZM42.128 58.3359V56.1024H44.1051V58.3471H46.7436V56.1163H48.7471V58.3326H51.4107V56.1057H53.3884V58.3445H56.052V56.1203H58.0297V58.3299H60.6933V56.1097H62.6962V58.3418H65.3347V56.1242H67.3045V62.666H37.5468V56.1137H39.4631V58.3359H42.128Z" fill="#2E2E3E"/>
<path d="M34.4365 67.3866L2.67596 35.636L2.57024 35.529C2.41495 35.371 2.25438 35.2072 2.06408 35.079C1.6795 34.8219 1.2229 34.7757 0.810572 34.9495C0.400226 35.1239 0.106838 35.4992 0.025562 35.9545C-0.00351243 36.1171 -0.000869415 36.2796 0.00111293 36.4369L0.00243456 36.5618C0.00177378 47.129 0.00111299 57.6962 0.00243456 68.2641C0.00243456 69.5447 0.451106 69.998 1.71783 69.9987C5.48429 69.9993 9.25009 69.9993 13.0165 69.9993L32.17 69.9987C32.6847 69.9987 33.2008 69.9974 33.7156 70C33.7202 70 33.7242 70 33.7288 70C34.3896 70 34.8409 69.7106 35.0702 69.1383C35.2816 68.6117 35.158 68.1234 34.6929 67.6456C34.6083 67.5584 34.5224 67.4725 34.4365 67.3866ZM30.3786 67.3185H2.69777V39.6443L30.3786 67.3185Z" fill="#2E2E3E"/>
<path d="M24.2234 20.9237C23.5355 21.2263 23.217 21.7219 23.2197 22.4825C23.2342 26.6507 23.2342 30.774 23.2197 34.7387C23.2164 35.523 23.5422 36.016 24.2763 36.3371C25.543 36.8935 26.8071 37.4558 28.0712 38.0181C30.0819 38.9128 32.1614 39.8379 34.2178 40.7214C34.4556 40.8238 34.7451 40.8754 35.0299 40.8754C35.3001 40.8754 35.5664 40.8291 35.7812 40.7359C37.8243 39.8584 39.8893 38.9379 41.8855 38.0485C43.1621 37.4796 44.4387 36.91 45.7187 36.3477C46.4706 36.0173 46.801 35.5032 46.7905 34.6805C46.7713 33.2486 46.7753 31.7922 46.7779 30.3834C46.7799 29.8099 46.7812 29.2363 46.7812 28.6628C46.7812 28.0852 46.7799 27.5071 46.7779 26.9295C46.7746 25.5009 46.7706 24.0241 46.7911 22.5723C46.803 21.7404 46.4759 21.2237 45.7326 20.8979C44.4354 20.329 43.1416 19.7534 41.8478 19.1772C39.8668 18.2957 37.8184 17.3839 35.7924 16.513C35.3378 16.318 34.681 16.318 34.231 16.511C32.0312 17.4552 29.809 18.4438 27.6588 19.4006C26.5144 19.9094 25.3699 20.4188 24.2234 20.9237ZM36.3303 36.1005C36.3296 33.3841 36.329 30.6854 36.3442 27.9868C36.3448 27.885 36.4638 27.6974 36.5523 27.6577C38.9437 26.582 41.3839 25.5089 43.7443 24.4708L44.1282 24.3148L44.1302 30.6273C44.1335 31.6396 44.1368 32.6863 44.113 33.7138C44.1084 33.9226 43.9683 34.1962 43.8718 34.2404C41.7289 35.2177 39.5364 36.1831 37.4166 37.1168L36.3594 37.5886C36.3587 37.5886 36.3587 37.5886 36.3587 37.5886C36.3501 37.5886 36.3415 37.5873 36.3303 37.586V36.1005ZM25.882 27.2408C25.8813 26.4187 25.88 25.5974 25.8807 24.7754C25.8807 24.6379 25.8893 24.5005 25.8992 24.3465L25.9011 24.3122C26.0102 24.3452 26.1053 24.3743 26.1952 24.4139L27.2009 24.86C29.1938 25.7421 31.2548 26.6546 33.2715 27.5731C33.4552 27.6571 33.6541 27.8969 33.6554 28.0026C33.6799 30.6392 33.6786 33.2248 33.6772 35.9618L33.6766 37.5747L33.6561 37.5675C33.5114 37.5179 33.3845 37.4743 33.2623 37.4208C32.546 37.1036 31.8297 36.7844 31.1141 36.4659C29.5354 35.7629 27.9568 35.0598 26.3723 34.3706C25.9738 34.1975 25.8602 34.031 25.8641 33.6266C25.8866 31.4982 25.884 29.3341 25.882 27.2408ZM41.9093 22.3536C41.5861 22.5029 41.2663 22.6503 40.9452 22.7937L39.9031 23.2595C38.4487 23.9098 36.9441 24.5818 35.4567 25.2207C35.2103 25.3265 34.8931 25.3503 34.7193 25.2756C32.8803 24.4846 31.0209 23.654 29.2236 22.8512L27.9073 22.2637C27.8848 22.2538 27.8643 22.2419 27.8392 22.2267L29.0227 21.7014C30.9819 20.8312 32.8717 19.992 34.7669 19.1647C34.9017 19.1052 35.1138 19.1012 35.238 19.1561C37.4054 20.105 39.6018 21.0869 41.7249 22.0358L42.1683 22.234L41.9093 22.3536Z" fill="#EE3E3C"/>
<path d="M36.2926 8.17058H33.7281V14.2141H36.2926V8.17058Z" fill="#2E2E3E"/>
<path d="M36.29 44.176H33.7301V50.2281H36.29V44.176Z" fill="#2E2E3E"/>
<path d="M14.5548 19.8922L19.699 22.3391L20.8323 19.9563L15.6755 17.4836L14.5548 19.8922Z" fill="#2E2E3E"/>
<path d="M14.539 38.513L15.6894 40.9038L20.8343 38.4364L19.6918 36.0523L14.539 38.513Z" fill="#2E2E3E"/>
<path d="M54.3034 17.485L49.1486 19.9437L50.2884 22.3335L55.4433 19.8749L54.3034 17.485Z" fill="#2E2E3E"/>
<path d="M15.3729 4.6909H12.8183V7.25804H15.3729V4.6909Z" fill="#2E2E3E"/>
<path d="M20.0241 4.68495H17.457V7.26398H20.0241V4.68495Z" fill="#2E2E3E"/>
<path d="M24.6787 4.69949H22.1169V7.2739H24.6787V4.69949Z" fill="#2E2E3E"/>
<path d="M6.97169 61.4382C6.97367 62.5517 7.46199 63.0274 8.60382 63.032C9.61152 63.036 10.6199 63.0354 11.6289 63.034L14.1835 63.0314C15.1978 63.0294 16.2114 63.0261 17.2244 63.0387C17.2436 63.0387 17.2621 63.0393 17.2812 63.0387C17.872 63.0387 18.5037 62.9263 18.8063 62.1915C19.101 61.4739 18.7158 60.9526 18.2995 60.5376C15.3418 57.5872 12.3875 54.6335 9.43575 51.6772C9.04787 51.2893 8.50867 50.8869 7.76992 51.2173C7.0457 51.5417 6.96442 52.2038 6.96574 52.6743C6.97037 54.2866 6.97037 55.9002 6.96971 57.5125C6.96905 58.8209 6.96905 60.1292 6.97169 61.4382ZM9.67363 60.3427V55.8804L14.1114 60.3427H9.67363Z" fill="#EE3E3C"/>
</svg>
